<svg width="26" height="21" viewBox="0 0 26 21" fill="none" xmlns="http://www.w3.org/2000/svg">
<g id="burger-menu">
<g id="lines-group">
<path id="bottom-line" d="M24.9167 21H1.08333C0.485331 21 0 20.328 0 19.5C0 18.672 0.485331 18 1.08333 18H24.9167C25.5147 18 26 18.672 26 19.5C26 20.328 25.5147 21 24.9167 21Z" fill="white"/>
<path id="middle-line" d="M24.9167 12.1297H1.08333C0.485331 12.1297 0 11.4577 0 10.6297C0 9.80167 0.485331 9.12967 1.08333 9.12967H24.9167C25.5147 9.12967 26 9.80167 26 10.6297C26 11.4577 25.5147 12.1297 24.9167 12.1297Z" fill="white"/>
<path id="top-line" d="M24.9167 3.75632H1.08333C0.485331 3.75632 0 3.08432 0 2.25632C0 1.42831 0.485331 0.756317 1.08333 0.756317H24.9167C25.5147 0.756317 26 1.42831 26 2.25632C26 3.08432 25.5147 3.75632 24.9167 3.75632Z" fill="white"/>
</g>
</g>
</svg>
