<svg width="50" height="50" viewBox="0 0 50 50" fill="none" xmlns="http://www.w3.org/2000/svg">
<g clip-path="url(#clip0)">
<path d="M25.1136 0C25.1002 0 25.0734 0 25.0333 0C11.476 0 0.450684 11.0253 0.450684 24.5826C0.450684 30.1153 2.33959 35.4873 5.79588 39.8144L2.21902 48.1336C1.9243 48.8168 2.24581 49.6072 2.91564 49.8885C3.15678 49.9957 3.42471 50.0225 3.67924 49.9823L16.7944 47.6781C19.4201 48.6292 22.1798 49.1115 24.9663 49.0981C38.5235 49.0981 49.5488 38.0728 49.5488 24.5156C49.5756 10.9985 38.6307 0.0133965 25.1136 0ZM16.7006 19.6393H23.9347C24.6715 19.6393 25.2744 20.2421 25.2744 20.9789C25.2744 21.7157 24.6715 22.3185 23.9347 22.3185H16.7006C15.9638 22.3185 15.361 21.7157 15.361 20.9789C15.361 20.2421 15.9638 19.6393 16.7006 19.6393ZM33.3123 29.0168H16.7006C15.9638 29.0168 15.361 28.4139 15.361 27.6771C15.361 26.9403 15.9638 26.3375 16.7006 26.3375H33.3123C34.0491 26.3375 34.6519 26.9403 34.6519 27.6771C34.6519 28.4139 34.0491 29.0168 33.3123 29.0168Z" fill="#3A3335"/>
</g>
<defs>
<clipPath id="clip0">
<rect width="50" height="50" fill="white"/>
</clipPath>
</defs>
</svg>
