<svg width="974" height="608" viewBox="0 0 974 608" fill="none" xmlns="http://www.w3.org/2000/svg">
<path d="M0.488281 0.411255L973.035 0.411864V607.67L0.488281 607.67V0.411255Z" fill="#C4C4C4"/>
<path d="M275.216 132.753L288.608 130.628L301.999 128.504C322.324 256.566 342.649 384.628 362.975 512.69C354.047 514.106 345.12 515.523 336.192 516.939C315.867 388.877 295.542 260.815 275.216 132.753Z" fill="white"/>
<path d="M245.605 140.224L270.667 136.248L295.728 132.273C316.077 260.481 336.425 388.689 356.774 516.897C340.066 519.547 323.358 522.198 306.651 524.849L245.605 140.224Z" fill="#58EFEC"/>
<path d="M870.603 519.423L867.259 521.189C863.737 521.979 858.707 522.735 852.169 523.455C833.187 525.194 819.989 526.195 812.574 526.458C790.454 527.687 762.303 528.776 728.122 529.724C683.912 530.798 656.571 531.368 646.099 531.433C607.608 532.004 566.4 532.326 522.476 532.397C465.433 532.392 431.911 532.289 421.911 532.089C410.04 532.066 380.37 531.678 332.899 530.923C296.309 530.245 263.68 529.352 235.012 528.245C131.718 523.89 111.04 519.092 172.979 513.853C175.316 513.481 192.149 512.551 223.477 511.061C251.802 509.877 283.958 508.913 319.945 508.167C373.636 507.058 435.075 506.473 504.262 506.411C527.325 506.432 549.526 506.51 570.867 506.647C622.712 507.091 652.786 507.428 661.089 507.656C698.604 508.279 732.676 509.134 763.304 510.222C778.618 510.766 792.296 511.341 804.336 511.946C812.402 512.21 826.78 513.186 847.468 514.875C861.727 516.269 869.439 517.785 870.603 519.423Z" fill="black" fill-opacity="0.14902"/>
<path d="M487.795 128.211C486.826 128.328 485.86 128.465 484.837 128.618C484.014 128.737 483.162 128.859 482.248 129.028C482.057 129.051 481.857 129.095 481.658 129.138C459.035 132.976 441.104 143.816 430.366 160.043C424.124 169.508 420.445 180.765 419.695 192.903C419.03 203.97 420.615 215.455 424.492 227.296C426.8 234.383 427.653 236.042 433.881 245.593C438.268 252.322 439.568 254.539 441.326 258.287C443.816 263.659 444.532 267.319 444.17 273.016C443.869 277.286 443.087 284.329 442.527 287.822C442.396 288.431 442.092 290.424 441.801 292.201C441.292 295.396 441.102 296.558 439.988 302.551L439.95 302.557C438.556 305.838 436.59 309.696 434.17 313.667C432.019 317.363 430.128 323.615 430.248 327.659C430.238 333.207 428.94 336.39 424.538 341.039C421.404 344.338 418.616 347.594 418.177 348.231C417.727 348.86 415.877 351.02 414.135 352.798C402.82 363.607 381.893 396.413 382.797 401.792L382.442 401.836C420.872 430.096 463.776 442.192 511.153 438.127C512.018 438.035 512.879 437.937 513.736 437.834C535.839 435.159 556.245 429.251 574.956 420.11L576.05 419.98C575.928 419.856 575.807 419.745 575.697 419.641C567.627 412.638 565.146 406.613 561.553 385.542C556.632 357.673 549.573 341.099 536.58 327.763C532.334 323.479 532.303 323.308 535.934 315.268C536.069 314.941 536.205 314.613 536.338 314.266L536.367 314.264C535.817 314.115 535.259 313.952 534.692 313.774L534.673 313.778C535.214 311.736 535.745 309.929 536.289 308.394C537.154 305.973 538.67 303.055 539.545 302.083L540.207 301.361L554.573 301.676L568.987 301.985L570.498 301.608C572.42 301.161 573.529 300.754 575.139 299.976C578.63 298.259 582.062 294.613 582.929 291.647C583.617 289.209 583.254 286.693 581.279 280.266C579.895 275.831 579.884 275.735 579.977 274.42C580.164 272.587 581.025 271.014 583.345 268.465C585.294 266.313 585.501 266.015 585.512 265.381C585.536 264.619 585.118 263.901 583.781 262.34C582.388 260.728 581.88 259.904 582.061 259.473C582.105 259.351 582.632 258.879 583.233 258.456C585.984 256.498 586.821 255.453 586.891 253.858C586.937 252.792 586.657 252.086 585.347 250.269C584.281 248.783 583.903 247.914 583.776 246.946C583.725 246.524 583.431 245.382 583.157 244.403C582.544 242.317 582.51 241.387 583.012 240.635C583.582 239.71 584.64 239.203 586.806 238.843C586.995 238.801 587.185 238.758 587.396 238.733C587.51 238.709 587.625 238.695 587.749 238.68C588.008 238.649 588.278 238.626 588.556 238.592C588.615 238.595 588.673 238.588 588.73 238.581C588.836 238.568 588.95 238.545 589.055 238.532C589.828 238.4 590.505 238.123 592.061 237.39C595.749 235.61 597.234 234.37 597.808 232.52C598.28 231.032 597.895 229.22 596.466 226.338C594.653 222.703 592.004 218.907 584.151 208.638C579.29 202.249 576.703 198.727 574.934 196.022L573.868 194.37L574.322 193.294C575.887 189.659 576.104 186.227 575.147 180.738C573.632 171.998 570.117 163.626 565.002 156.431C561.075 150.931 555.824 145.669 550.203 141.61C540.026 134.249 526.691 129.421 512.647 127.987C511.317 127.856 509.909 127.724 509.485 127.678C508.074 127.518 497.756 127.434 495.677 127.549C492.574 127.73 490.193 127.921 487.795 128.211ZM488.528 145.122C502.982 143.373 516.265 146.833 528.378 155.501C540.413 164.697 547.64 176.771 550.061 191.724C552.074 206.745 548.632 220.39 539.735 232.657C530.704 244.571 518.646 251.772 503.561 254.259L502.794 254.353C488.008 256.142 474.591 252.653 462.544 243.886C450.683 234.838 443.513 222.811 441.035 207.807C439.023 192.792 442.464 179.145 451.36 166.864C460.392 154.957 472.443 147.754 487.513 145.255L487.523 145.256C487.861 145.207 488.196 145.163 488.528 145.122Z" fill="url(#paint0_linear)"/>
<path d="M556.965 194.196L557.403 202.41C556.792 219.139 550.778 233.188 539.361 244.555C527.856 255.925 513.389 261.722 495.96 261.945C479.227 261.334 465.175 255.321 453.805 243.907C450.158 240.214 447.022 236.089 444.398 231.531L440.927 224.433C438.895 219.506 437.536 214.272 436.849 208.731C435.219 191.669 439.369 176.807 449.299 164.145C459.23 151.483 472.676 143.908 489.638 141.42C506.703 139.79 521.569 143.939 534.234 153.867C546.899 163.795 554.476 177.238 556.965 194.196Z" fill="url(#paint1_linear)"/>
<path d="M487.795 128.211C486.826 128.328 485.859 128.465 484.836 128.618C484.013 128.737 483.162 128.859 482.248 129.028C482.056 129.051 481.857 129.095 481.658 129.138C459.035 132.976 441.104 143.816 430.366 160.043C424.648 168.714 421.08 178.889 419.945 189.867C420.2 189.836 420.454 189.805 420.709 189.774C426.547 189.068 432.288 188.492 437.929 188.048L437.929 188.049C437.929 188.049 437.929 188.048 437.929 188.049C439.212 187.947 440.49 187.853 441.761 187.766L441.761 187.766C441.761 187.766 441.761 187.766 441.761 187.766C457.771 186.667 472.973 186.642 487.367 187.691C504.103 190.296 513.636 192.536 515.965 194.411C521.676 196.763 526.849 199.83 531.484 203.614C536.086 207.441 540.149 211.984 543.675 217.244L546.179 221.452L546.179 221.452C546.179 221.453 546.179 221.454 546.178 221.455L548.633 225.574C549.293 226.842 549.936 228.135 550.559 229.452L550.559 229.452C550.559 229.453 550.558 229.454 550.558 229.454C552.827 234.24 554.855 239.346 556.641 244.773C561.094 257.655 565.171 276.725 568.872 301.983L568.986 301.985L570.498 301.608C572.42 301.161 573.529 300.754 575.138 299.976C578.629 298.259 582.062 294.613 582.929 291.647C583.617 289.209 583.254 286.693 581.279 280.266C579.895 275.831 579.883 275.735 579.977 274.42C580.164 272.587 581.025 271.014 583.344 268.465C585.293 266.313 585.501 266.015 585.511 265.381C585.536 264.619 585.118 263.901 583.781 262.34C582.388 260.728 581.88 259.904 582.061 259.473C582.105 259.351 582.631 258.879 583.232 258.456C585.984 256.498 586.821 255.453 586.89 253.858C586.936 252.792 586.656 252.086 585.346 250.269C584.281 248.783 583.903 247.914 583.776 246.946C583.725 246.524 583.431 245.382 583.157 244.403C582.544 242.317 582.509 241.387 583.012 240.635C583.581 239.71 584.639 239.203 586.805 238.843C586.995 238.801 587.184 238.758 587.395 238.733C587.509 238.709 587.624 238.695 587.749 238.68C588.008 238.649 588.278 238.626 588.556 238.592C588.615 238.595 588.672 238.588 588.73 238.581C588.835 238.568 588.949 238.545 589.055 238.532C589.827 238.4 590.504 238.123 592.061 237.39C595.748 235.61 597.233 234.37 597.808 232.52C598.28 231.032 597.895 229.22 596.465 226.337C594.653 222.703 592.003 218.907 584.151 208.638C579.289 202.249 576.702 198.727 574.934 196.022L573.868 194.37L574.321 193.294C575.886 189.659 576.104 186.227 575.147 180.738C573.631 171.998 570.116 163.626 565.001 156.431C561.075 150.931 555.824 145.669 550.203 141.61C540.026 134.249 526.69 129.421 512.647 127.987C511.317 127.856 509.909 127.724 509.485 127.678C508.073 127.518 497.755 127.434 495.677 127.549C492.574 127.73 490.193 127.921 487.795 128.211Z" fill="white"/>
<path d="M487.795 128.211C486.826 128.328 485.859 128.465 484.836 128.618C484.014 128.737 483.162 128.859 482.248 129.028C482.056 129.051 481.857 129.095 481.658 129.138C463.328 132.247 448.079 139.954 437.24 151.397C446.502 152.517 455.617 153.445 464.583 154.182L464.583 154.183C464.583 154.183 464.583 154.182 464.583 154.183C468.259 154.484 471.91 154.754 475.536 154.992C490.797 155.729 502.274 155.631 509.967 154.7C510.041 154.692 510.114 154.683 510.188 154.673C511.379 154.563 512.584 154.435 513.805 154.287C517.119 153.886 520.541 153.346 524.068 152.667C524.068 152.667 524.067 152.667 524.067 152.667L524.07 152.667C529.201 151.68 534.556 150.399 540.136 148.824C544.08 147.717 548.65 146.261 553.846 144.454C552.659 143.454 551.44 142.503 550.203 141.61C540.026 134.249 526.691 129.421 512.647 127.987C511.317 127.856 509.909 127.724 509.485 127.678C508.074 127.518 497.756 127.434 495.677 127.549C492.574 127.73 490.193 127.921 487.795 128.211Z" fill="#3A3335"/>
<path d="M574.22 182.829C572.241 183.068 570.196 183.45 568.084 183.976C560.542 186.108 554.675 189.419 550.485 193.908C550.432 193.964 550.381 194.019 550.33 194.075C550.33 194.076 550.33 194.077 550.33 194.077L550.327 194.078C546.255 198.515 544.747 203.102 545.805 207.841C546.223 209.387 546.936 210.788 547.944 212.044L549.007 213.15L549.007 213.151C549.007 213.151 549.007 213.152 549.007 213.153L549.64 213.808C550.905 214.908 552.391 215.84 554.098 216.605C558.919 218.74 564.638 219.407 571.254 218.607C571.936 218.524 572.626 218.426 573.326 218.313C578.774 217.254 583.521 215.528 587.565 213.135C586.553 211.787 585.42 210.297 584.151 208.637C579.29 202.249 576.703 198.727 574.934 196.022L573.868 194.37L574.322 193.293C575.692 190.112 576.029 187.085 575.45 182.697C575.044 182.735 574.634 182.778 574.22 182.829Z" fill="url(#paint2_linear)"/>
<path d="M512.371 196.659L574.124 169.224C578.034 174.895 581.712 180.527 585.156 186.118C586.428 188.13 588.309 191.613 590.798 196.567C592.036 199.779 592.797 202.914 593.082 205.972C593.313 207.474 592.901 210.835 591.847 216.056L516.595 230.415L512.371 196.659Z" fill="#346875" fill-opacity="0.631373"/>
<path d="M527.021 206.309L527.757 211.112C528.37 220.983 525.651 229.592 519.6 236.938C513.497 244.291 505.328 248.539 495.094 249.682C485.22 250.294 476.609 247.575 469.261 241.525C461.906 235.423 457.657 227.256 456.513 217.024C455.901 207.153 458.62 198.545 464.672 191.2C470.775 183.847 478.943 179.6 489.177 178.457C499.05 177.845 507.66 180.564 515.008 186.614C517.367 188.573 519.45 190.816 521.258 193.343L523.711 197.315C525.192 200.093 526.295 203.092 527.021 206.309Z" fill="#3A3335"/>
<path d="M499.592 212.706L499.762 213.814C499.904 216.092 499.276 218.078 497.88 219.773C496.473 221.47 494.588 222.45 492.227 222.714C489.949 222.856 487.962 222.228 486.267 220.833C484.57 219.425 483.589 217.541 483.325 215.18C483.183 212.903 483.81 210.917 485.206 209.222C486.614 207.525 488.499 206.545 490.86 206.281C493.138 206.14 495.124 206.767 496.82 208.162C497.364 208.614 497.845 209.132 498.262 209.715L498.828 210.631C499.17 211.272 499.425 211.964 499.592 212.706Z" fill="white"/>
<path d="M441.835 292.005C441.822 292.071 441.812 292.136 441.801 292.201C441.292 295.396 441.102 296.558 439.988 302.551L439.95 302.557C439.325 304.027 438.586 305.613 437.742 307.273L466.448 314.723L482.46 320.742L501.085 318.978L527.534 319.465L534.136 319.401C534.571 318.296 535.172 316.956 535.934 315.268C536.069 314.941 536.205 314.613 536.338 314.266L536.367 314.264C535.817 314.115 535.258 313.952 534.692 313.774L534.673 313.778C535.214 311.736 535.745 309.929 536.289 308.394C536.593 307.542 536.979 306.628 537.388 305.759L535.006 305.096L483.513 303.19L441.835 292.005ZM523.21 308.817C523.155 308.975 523.101 309.134 523.048 309.292L523.046 309.292C523.1 309.134 523.154 308.975 523.208 308.817L523.21 308.817ZM513.526 309.017V309.018C513.527 309.017 513.528 309.017 513.528 309.017L510.706 317.39L510.706 317.391L513.526 309.018L513.524 309.018L513.524 309.018L513.526 309.017ZM532.964 308.365V308.365V308.365L530.17 316.667L532.966 308.365L532.969 308.365L530.169 316.67L530.165 316.682L530.165 316.682L530.17 316.667L530.168 316.673L530.169 316.67L530.169 316.669L530.17 316.667L530.17 316.667L532.964 308.365V308.365V308.365Z" fill="white"/>
<path d="M494.06 308.339L491.263 316.645L494.058 308.339L494.06 308.339Z" fill="#E85C90"/>
<path d="M532.967 308.365L530.165 316.682L532.964 308.365L532.967 308.365Z" fill="#E85C90"/>
<path d="M513.526 309.017L510.702 317.402L513.524 309.018L513.526 309.017Z" fill="#E85C90"/>
<path d="M494.06 308.339L491.263 316.645L494.058 308.339L494.06 308.339Z" fill="#E85C90"/>
<path d="M523.208 308.817C523.154 308.975 523.101 309.134 523.048 309.292L523.046 309.292C523.099 309.134 523.152 308.976 523.205 308.818L523.208 308.817Z" fill="#E85C90"/>
<path d="M450.971 297.618L452.739 298.213L454.507 298.808C453.28 302.453 452.053 306.098 450.826 309.743C449.648 309.347 448.469 308.95 447.29 308.554C448.517 304.908 449.744 301.263 450.971 297.618Z" fill="#7CE3FF"/>
<path d="M461.018 300.682L464.554 301.871L460.873 312.806L457.337 311.617L461.018 300.682Z" fill="#7CE3FF"/>
<path d="M480.944 305.434L482.712 306.029L484.48 306.623C483.254 310.268 482.027 313.914 480.8 317.559C479.621 317.162 478.442 316.766 477.264 316.369C478.491 312.724 479.717 309.079 480.944 305.434Z" fill="#7CE3FF"/>
<path d="M470.992 303.152L474.528 304.342L470.848 315.277L467.312 314.088L470.992 303.152Z" fill="#7CE3FF"/>
<path d="M490.747 306.483L494.283 307.672L490.603 318.608L487.066 317.418L490.747 306.483Z" fill="#7CE3FF"/>
<path d="M500.468 306.86L502.236 307.455L504.004 308.05C502.777 311.695 501.551 315.34 500.324 318.986C499.145 318.589 497.966 318.193 496.788 317.796C498.014 314.151 499.241 310.506 500.468 306.86Z" fill="#7CE3FF"/>
<path d="M510.189 307.231L513.725 308.421L510.045 319.356L506.508 318.167L510.189 307.231Z" fill="#7CE3FF"/>
<path d="M519.848 307.096L521.616 307.691L523.384 308.286C522.157 311.931 520.931 315.576 519.704 319.222C518.525 318.825 517.346 318.429 516.167 318.032C517.394 314.387 518.621 310.742 519.848 307.096Z" fill="#7CE3FF"/>
<path d="M529.506 306.945L533.042 308.135L529.361 319.07L525.825 317.881L529.506 306.945Z" fill="#7CE3FF"/>
<path d="M443.068 294.746L446.604 295.936L442.923 306.871L439.387 305.682L443.068 294.746Z" fill="#7CE3FF"/>
<path d="M474.157 305.448L471.493 313.36L471.493 313.361L474.155 305.448L474.157 305.448Z" fill="#535D66" fill-opacity="0.345098"/>
<path d="M464.166 303.028L461.593 310.668L464.164 303.028L464.166 303.028Z" fill="#535D66" fill-opacity="0.345098"/>
<path d="M446.153 297.279L443.74 304.446L446.152 297.279L446.153 297.279Z" fill="#535D66" fill-opacity="0.345098"/>
<path d="M439.801 302.904C439.12 304.483 438.31 306.189 437.384 307.971C452.237 313.877 467.602 319.2 484.519 321.508C499.907 323.608 516.52 323.203 533.342 322.092C533.52 320.771 534.233 319.056 535.454 316.335C517.919 317.559 500.9 318.092 485.276 315.961C469.121 313.756 454.387 308.691 439.803 302.904L439.801 302.904Z" fill="white"/>
<path d="M442.263 289.332C442.126 290.175 441.962 291.221 441.801 292.201C441.599 293.47 441.447 294.418 441.268 295.475C455.195 300.737 469.645 305.254 485.319 307.393C501.431 309.591 518.778 309.266 536.374 308.161C537.25 305.789 538.698 303.024 539.545 302.083L539.777 301.83C521.039 303.115 502.858 303.638 486.143 301.357C470.629 299.24 456.32 294.699 442.264 289.332L442.263 289.332Z" fill="white"/>
<path d="M487.795 128.211L487.795 128.211C486.826 128.328 485.86 128.467 484.837 128.617C484.014 128.739 483.164 128.869 482.248 129.028C482.058 129.061 481.859 129.104 481.658 129.138C459.036 132.985 441.095 143.81 430.366 160.043C424.115 169.502 420.435 180.764 419.695 192.903C419.02 203.969 420.622 215.453 424.492 227.296C426.807 234.381 427.653 236.041 433.881 245.593C438.268 252.322 439.578 254.534 441.326 258.287C443.826 263.654 444.549 267.32 444.17 273.016C443.886 277.287 443.114 284.333 442.527 287.822C442.423 288.436 442.087 290.423 441.801 292.201C441.287 295.395 441.102 296.558 439.988 302.551L439.95 302.557C438.556 305.838 436.552 309.673 434.17 313.667C431.98 317.34 430.201 323.614 430.248 327.658C430.311 333.206 428.943 336.393 424.538 341.039C421.408 344.341 418.621 347.598 418.177 348.231C417.733 348.864 415.927 351.071 414.135 352.798C402.869 363.658 381.893 396.412 382.797 401.792L382.442 401.836C420.872 430.095 463.777 442.209 511.153 438.126C512.02 438.052 512.879 437.937 513.736 437.834C535.839 435.159 556.245 429.251 574.956 420.11L576.05 419.979C575.928 419.856 575.811 419.74 575.697 419.641C567.631 412.633 565.217 406.601 561.553 385.542C556.703 357.661 549.602 341.071 536.58 327.763C532.362 323.451 532.313 323.312 535.934 315.268C536.079 314.945 536.205 314.613 536.338 314.266L536.367 314.264C535.817 314.115 535.258 313.952 534.692 313.774L534.673 313.778C535.214 311.736 535.742 309.928 536.289 308.394C537.152 305.972 538.67 303.055 539.545 302.083L540.207 301.361L540.384 301.365L540.106 298.437L516.22 258.758C515.006 259.154 513.771 259.512 512.518 259.834L512.517 259.835C513.77 259.513 515.004 259.154 516.218 258.758L512.269 252.195L512.267 252.196L491.369 214.969L493.728 178.415C493.727 178.415 493.727 178.415 493.726 178.415L493.728 178.415L495.362 155.473C495.361 155.473 495.36 155.473 495.36 155.473L495.362 155.474L497.354 127.507C496.616 127.516 496.028 127.528 495.677 127.549C492.574 127.729 490.193 127.92 487.795 128.211L487.795 128.211L487.795 128.211ZM441.762 187.766L441.762 187.766C441.763 187.766 441.764 187.766 441.765 187.766L441.762 187.766C441.762 187.766 441.762 187.766 441.762 187.766L441.762 187.766L441.762 187.766ZM437.929 188.049L437.929 188.049C437.93 188.049 437.931 188.049 437.932 188.048L437.931 188.049C437.735 188.945 437.56 189.848 437.404 190.76L437.403 190.76C437.558 189.848 437.734 188.945 437.929 188.049L437.929 188.049L437.929 188.049ZM488.192 295.986L488.192 295.987C488.194 295.986 488.195 295.986 488.196 295.986L488.192 295.987C488.192 295.987 488.192 295.986 488.192 295.986L488.192 295.987L488.192 295.986Z" fill="url(#paint3_linear)" fill-opacity="0.0666667"/>
<path d="M530.182 316.631L530.179 316.642L530.176 316.649L530.176 316.648L530.182 316.631Z" fill="#3C464F"/>
<path d="M530.182 316.632L530.179 316.641L530.179 316.639L530.182 316.632Z" fill="#3C464F"/>
<path d="M532.967 308.365L530.182 316.632L530.194 316.596L530.194 316.597L532.967 308.365Z" fill="#3C464F"/>
<path d="M467.337 331.632C461.287 332.364 455.588 334.154 450.24 337.003C442.615 341.045 436.494 347.466 431.875 356.266C424.733 369.471 419.985 391.593 417.631 422.631C446.582 435.828 477.756 440.993 511.153 438.127C512.018 438.035 512.879 437.937 513.736 437.834C519.684 437.114 525.509 436.16 531.212 434.972C530.838 418.182 529.615 402.277 527.543 387.257C525.876 376.253 522.966 366.546 518.811 358.137C514.245 349.541 508.636 343.265 501.985 339.309C500.979 338.358 497.37 336.634 491.16 334.137C486.042 332.401 480.782 331.447 475.378 331.276C472.632 331.197 469.952 331.316 467.337 331.632Z" fill="white"/>
<path d="M467.532 346.339C461.805 347.032 456.41 348.727 451.347 351.424C444.129 355.25 438.334 361.329 433.961 369.659C427.854 380.953 423.595 399.135 421.186 424.207C449.13 436.236 479.119 440.876 511.153 438.127C512.018 438.035 512.879 437.937 513.736 437.834C518.479 437.26 523.144 436.537 527.73 435.665C527.204 422.88 526.137 410.657 524.528 398.998C522.951 388.581 520.196 379.392 516.263 371.431C511.939 363.294 506.63 357.352 500.333 353.607C499.381 352.707 495.964 351.075 490.085 348.71C485.241 347.067 480.261 346.164 475.145 346.002C472.545 345.927 470.008 346.04 467.532 346.339H467.532Z" fill="#3A3335"/>
<path d="M441.372 258.385L441.372 258.386C441.372 258.385 441.372 258.385 441.372 258.385L441.372 258.385Z" fill="#3A3335"/>
<path d="M424.519 227.379C424.519 227.38 424.519 227.38 424.52 227.381L424.52 227.381C424.52 227.38 424.519 227.38 424.519 227.379H424.519Z" fill="#3A3335"/>
<path d="M442.412 288.437C442.368 288.692 442.318 288.996 442.263 289.333C442.267 289.334 442.27 289.334 442.272 289.336C442.27 289.334 442.267 289.334 442.265 289.332C442.319 288.996 442.369 288.692 442.412 288.437L442.412 288.437Z" fill="#3A3335"/>
<path d="M423.352 223.597L423.352 223.598C423.707 224.827 424.087 226.06 424.492 227.297C424.088 226.06 423.708 224.827 423.354 223.598L423.352 223.597H423.352Z" fill="#3A3335"/>
<path d="M540.401 301.298L540.243 298.192C539.309 283.152 539.63 271.015 541.206 261.781C542.508 254.009 545.599 243.432 550.481 230.051C544.231 238.207 540.134 243.186 538.189 244.988C535.339 247.984 532.832 250.19 530.666 251.605C528.557 253.212 525.84 254.7 522.515 256.069C516.28 258.384 511.175 259.911 507.201 260.649L540.401 301.298Z" fill="#E85C90"/>
<path d="M574.521 311.68L574.521 311.68V311.681L574.521 311.68Z" fill="#06485A"/>
<path d="M581.314 257.575L581.313 257.575C448.449 276.977 448.449 276.977 581.314 257.575Z" fill="white"/>
<path d="M471.947 264.744L486.885 265.712L501.824 266.68C501.147 277.12 500.47 287.561 499.793 298.002C489.834 297.356 479.875 296.711 469.917 296.066C470.593 285.625 471.27 275.185 471.947 264.744Z" fill="#FF001E"/>
<path d="M473.066 266.08L486.804 266.97L500.541 267.861C499.919 277.462 499.297 287.063 498.674 296.665C489.516 296.072 480.357 295.478 471.199 294.885C471.821 285.284 472.443 275.682 473.066 266.08Z" fill="#535D66"/>
<path d="M483.93 266.619L486.998 266.818L490.067 267.016C489.441 276.698 488.814 286.381 488.188 296.063C486.142 295.93 484.096 295.798 482.05 295.666C482.676 285.984 483.303 276.301 483.93 266.619Z" fill="white"/>
<path d="M478.696 270.965L486.426 271.4L494.157 271.835C494.072 273.346 493.987 274.856 493.902 276.367C488.748 276.077 483.594 275.787 478.44 275.497C478.525 273.986 478.61 272.476 478.696 270.965Z" fill="#E85C90"/>
<path d="M478.249 278.896L493.711 279.766L493.456 284.297L477.994 283.427L478.249 278.896Z" fill="#E85C90"/>
<path d="M477.803 286.827L485.534 287.262L493.265 287.697C493.18 289.207 493.095 290.718 493.01 292.228C487.856 291.938 482.702 291.648 477.548 291.358C477.633 289.848 477.718 288.337 477.803 286.827Z" fill="#E85C90"/>
<path d="M482.056 295.589C482.054 295.614 482.051 295.639 482.05 295.664C482.051 295.639 482.053 295.614 482.055 295.589L482.056 295.589Z" fill="#3C464F"/>
<path d="M488.193 295.986C488.193 295.986 488.193 295.987 488.193 295.987L488.192 295.988C491.687 296.213 495.181 296.439 498.674 296.665C495.181 296.439 491.687 296.212 488.193 295.986Z" fill="#3A3335"/>
<path d="M490.056 267.181L500.541 267.861L500.541 267.861L490.057 267.181L490.056 267.181Z" fill="#3A3335"/>
<path d="M432.362 177.277L431.771 179.929C430.409 185.238 428.683 189.359 426.594 192.29C424.495 195.216 422.516 196.18 420.655 195.18C418.934 193.956 417.914 191.17 417.598 186.824C417.499 185.419 417.487 183.908 417.563 182.29L417.747 179.808C417.915 178.109 418.177 176.352 418.534 174.539C419.686 168.986 421.278 164.491 423.31 161.055C425.343 157.619 427.352 156.024 429.339 156.272C431.269 156.8 432.519 159.04 433.088 162.991C433.657 166.943 433.415 171.705 432.362 177.277Z" fill="#3A3335"/>
<path d="M312.713 314.859C319.525 314.307 326.541 313.737 332.946 313.737C340.905 313.737 348.816 314.59 354.403 318.192V318.192C359.159 321.26 361.761 326.054 363.878 329.828C366.23 334.021 368.121 337.249 371.358 339.336L371.358 339.336C371.684 339.546 372.024 339.745 372.382 339.932L372.382 339.932C374.374 340.971 376.933 341.656 379.589 341.656C385.992 341.656 394.483 337.6 394.638 319.699C394.745 307.245 390.748 288.882 386.492 269.45C382.161 249.673 377.571 228.825 377.701 213.74V213.74C377.704 213.375 377.71 213.012 377.719 212.653V212.653C378.483 181.133 400.831 175.696 419.807 170.918C421.918 170.386 424.061 171.666 424.592 173.777C425.124 175.888 423.844 178.03 421.732 178.562C402.285 183.459 386.211 187.698 385.601 212.844V212.844C385.594 213.161 385.588 213.483 385.585 213.808V213.808C385.465 227.794 389.783 247.62 394.195 267.764C398.364 286.801 402.639 306.208 402.522 319.767C402.338 341.108 391.157 349.539 379.589 349.539C375.648 349.539 371.838 348.54 368.733 346.919L368.732 346.919C368.158 346.619 367.61 346.3 367.084 345.96L367.084 345.961C361.948 342.648 359.207 337.616 357.001 333.684H357.001C354.707 329.593 352.968 326.647 350.129 324.817L350.129 324.817C346.627 322.559 340.788 321.62 332.946 321.62C326.921 321.62 320.238 322.158 313.349 322.716C311.179 322.891 309.277 321.275 309.101 319.105C308.926 316.935 310.543 315.034 312.713 314.859Z" fill="#3A3335"/>
<path d="M233.607 141.284L244.756 139.515L255.904 137.747C276.23 265.809 296.555 393.871 316.88 521.933L294.583 525.47L233.607 141.284Z" fill="white"/>
<path d="M358.554 464.725V464.725L298.98 498.868C317.28 501.256 335.58 503.643 353.88 506.031L358.554 464.725Z" fill="white"/>
<path d="M301.771 128.551L275.505 130.176L234.546 141.331L250.666 139.009C248.285 140.647 246.961 141.751 246.693 142.322C246.307 143.062 247.045 143.375 248.905 143.261C250.78 143.231 255.663 142.329 263.555 140.556C267.944 139.622 280.342 136.595 300.749 131.473L301.771 128.551Z" fill="white"/>
<path d="M354.424 469.913L517.179 469.913L679.934 469.914C679.934 484.339 679.934 498.765 679.934 513.191C571.431 513.191 462.928 513.191 354.424 513.191C354.424 498.765 354.424 484.339 354.424 469.913Z" fill="white"/>
<path d="M601.817 476.795V476.795L646.476 475.448C646.448 481.969 646.42 488.489 646.392 495.01C629.838 494.965 613.284 494.92 596.73 494.874L601.817 476.795Z" fill="#535D66" fill-opacity="0.996078"/>
<path d="M381.784 474.606V474.607C448.729 475.129 515.674 475.651 582.62 476.174C581.077 481.553 579.535 486.932 577.993 492.311C507.147 492.04 436.302 491.768 365.456 491.497L381.784 474.606Z" fill="#535D66" fill-opacity="0.996078"/>
<path d="M295.599 132.497L255.817 141.934L263.784 190.458L295.599 132.497Z" fill="white" fill-opacity="0.207843"/>
<path d="M305.813 495.683L340.711 409.707L349.388 469.939L305.813 495.683Z" fill="white" fill-opacity="0.203922"/>
<path d="M295.655 485.485L487.537 485.485L679.42 485.486C679.42 499.911 679.42 514.337 679.42 528.762C551.498 528.763 423.576 528.763 295.655 528.763C295.655 514.337 295.655 499.911 295.655 485.485Z" fill="white"/>
<path d="M293.534 496.97L486.757 496.97L679.98 496.97C679.98 507.506 679.98 518.042 679.98 528.577C551.164 528.577 422.349 528.577 293.534 528.578C293.534 518.042 293.534 507.506 293.534 496.97Z" fill="black" fill-opacity="0.0941176"/>
<path d="M235.829 145.013L253.182 142.291L308.49 494.694L291.138 497.417L235.829 145.013Z" fill="black" fill-opacity="0.0980392"/>
<defs>
<linearGradient id="paint0_linear" x1="523.851" y1="515.774" x2="603.302" y2="-326.477" gradientUnits="userSpaceOnUse">
<stop stop-color="white"/>
<stop offset="1" stop-color="#637079"/>
</linearGradient>
<linearGradient id="paint1_linear" x1="433.539" y1="352.87" x2="557.063" y2="195.287" gradientUnits="userSpaceOnUse">
<stop stop-color="white"/>
<stop offset="1" stop-color="#F6FBFF"/>
</linearGradient>
<linearGradient id="paint2_linear" x1="525.116" y1="217.222" x2="593.095" y2="193.048" gradientUnits="userSpaceOnUse">
<stop stop-color="white"/>
<stop offset="1" stop-color="#00E57A"/>
</linearGradient>
<linearGradient id="paint3_linear" x1="369.975" y1="298.854" x2="558.62" y2="276.015" gradientUnits="userSpaceOnUse">
<stop stop-color="white"/>
<stop offset="1" stop-color="#396470"/>
</linearGradient>
</defs>
</svg>
