<svg width="500" height="500" viewBox="0 0 500 500" fill="none" xmlns="http://www.w3.org/2000/svg">
<g id="hero-illustration">
<g id="frame-1">
<path d="M250 25C250 11.1929 261.193 0 275 0H375V125H275C261.193 125 250 113.807 250 100V25Z" fill="#00DFFF"/>
</g>
<g id="frame-2">
<path d="M125 150C125 136.193 136.193 125 150 125H225C238.807 125 250 136.193 250 150V225C250 238.807 238.807 250 225 250H125V150Z" fill="white"/>
</g>
<g id="frame-3">
<rect x="250" y="125" width="125" height="125" rx="62.5" fill="#FF00FF"/>
</g>
<g id="frame-4">
<path d="M375 125H475C488.807 125 500 136.193 500 150V250H400C386.193 250 375 238.807 375 225V125Z" fill="#8000FF"/>
</g>
<g id="frame-5">
<path d="M0 250H100C113.807 250 125 261.193 125 275V375H25C11.1929 375 0 363.807 0 350V250Z" fill="#FF00FF"/>
</g>
<g id="frame-6">
<rect x="125" y="250" width="125" height="125" rx="62.5" fill="#8000FF"/>
</g>
<g id="frame-7">
<path d="M250 275C250 261.193 261.193 250 275 250H375V375H275C261.193 375 250 363.807 250 350V275Z" fill="#00DFFF"/>
</g>
<g id="frame-8">
<path d="M125 400C125 386.193 136.193 375 150 375H225C238.807 375 250 386.193 250 400V475C250 488.807 238.807 500 225 500H125V400Z" fill="white"/>
</g>
</g>
</svg>
