<svg width="50" height="51" viewBox="0 0 50 51" fill="none" xmlns="http://www.w3.org/2000/svg">
<g clip-path="url(#clip0)">
<path d="M25 0.0947266C11.195 0.0947266 0 11.2897 0 25.0947C0 38.8997 11.195 50.0947 25 50.0947C38.805 50.0947 50 38.8997 50 25.0947C50 11.2897 38.805 0.0947266 25 0.0947266ZM17.7353 37.8877H11.6467V19.5699H17.7353V37.8877ZM14.6912 17.0686H14.6515C12.6083 17.0686 11.2869 15.6621 11.2869 13.9043C11.2869 12.1068 12.6488 10.7393 14.7316 10.7393C16.8144 10.7393 18.0962 12.1068 18.1358 13.9043C18.1358 15.6621 16.8144 17.0686 14.6912 17.0686ZM39.6896 37.8877H33.6018V28.0881C33.6018 25.6254 32.7202 23.9457 30.5172 23.9457C28.8353 23.9457 27.8336 25.0787 27.3933 26.1724C27.2324 26.5638 27.1931 27.1108 27.1931 27.6582V37.8877H21.1048C21.1048 37.8877 21.1845 21.2884 21.1048 19.5699H27.1931V22.1635C28.0022 20.9153 29.4498 19.14 32.6801 19.14C36.6859 19.14 39.6896 21.758 39.6896 27.3843V37.8877Z" fill="white"/>
</g>
<defs>
<clipPath id="clip0">
<rect width="50" height="50" fill="white" transform="translate(0 0.0947266)"/>
</clipPath>
</defs>
</svg>
