<svg width="235" height="39" viewBox="0 0 235 39" fill="none" xmlns="http://www.w3.org/2000/svg">
<path d="M24.6836 14.1133H19.5625V28H15.4492V14.1133H10.4219V10.9375H24.6836V14.1133ZM40.5508 19.8203C40.5508 21.4844 40.2422 22.957 39.625 24.2383C39.0078 25.5195 38.1289 26.5078 36.9883 27.2031C35.8555 27.8906 34.5625 28.2344 33.1094 28.2344C31.6562 28.2344 30.3672 27.9023 29.2422 27.2383C28.1172 26.5664 27.2383 25.6094 26.6055 24.3672C25.9805 23.125 25.6523 21.6992 25.6211 20.0898V19.1289C25.6211 17.457 25.9258 15.9844 26.5352 14.7109C27.1523 13.4297 28.0312 12.4414 29.1719 11.7461C30.3203 11.0508 31.625 10.7031 33.0859 10.7031C34.5312 10.7031 35.8203 11.0469 36.9531 11.7344C38.0859 12.4219 38.9648 13.4023 39.5898 14.6758C40.2227 15.9414 40.543 17.3945 40.5508 19.0352V19.8203ZM36.3672 19.1055C36.3672 17.4102 36.082 16.125 35.5117 15.25C34.9492 14.3672 34.1406 13.9258 33.0859 13.9258C31.0234 13.9258 29.9336 15.4727 29.8164 18.5664L29.8047 19.8203C29.8047 21.4922 30.082 22.7773 30.6367 23.6758C31.1914 24.5742 32.0156 25.0234 33.1094 25.0234C34.1484 25.0234 34.9492 24.582 35.5117 23.6992C36.0742 22.8164 36.3594 21.5469 36.3672 19.8906V19.1055ZM48.0742 10.9375L51.8828 22.8086L55.6797 10.9375H61.0938V28H56.9688V24.0156L57.3672 15.8594L53.2422 28H50.5234L46.3867 15.8477L46.7852 24.0156V28H42.6719V10.9375H48.0742ZM73.6211 24.8125H67.9844L67 28H62.6055L68.8633 10.9375H72.7305L79.0352 28H74.6172L73.6211 24.8125ZM68.9688 21.6367H72.6367L70.7969 15.7188L68.9688 21.6367ZM89.0898 23.4648C89.0898 22.8633 88.875 22.3945 88.4453 22.0586C88.0234 21.7227 87.2773 21.375 86.207 21.0156C85.1367 20.6562 84.2617 20.3086 83.582 19.9727C81.3711 18.8867 80.2656 17.3945 80.2656 15.4961C80.2656 14.5508 80.5391 13.7188 81.0859 13C81.6406 12.2734 82.4219 11.7109 83.4297 11.3125C84.4375 10.9062 85.5703 10.7031 86.8281 10.7031C88.0547 10.7031 89.1523 10.9219 90.1211 11.3594C91.0977 11.7969 91.8555 12.4219 92.3945 13.2344C92.9336 14.0391 93.2031 14.9609 93.2031 16H89.1016C89.1016 15.3047 88.8867 14.7656 88.457 14.3828C88.0352 14 87.4609 13.8086 86.7344 13.8086C86 13.8086 85.418 13.9727 84.9883 14.3008C84.5664 14.6211 84.3555 15.0312 84.3555 15.5312C84.3555 15.9688 84.5898 16.3672 85.0586 16.7266C85.5273 17.0781 86.3516 17.4453 87.5312 17.8281C88.7109 18.2031 89.6797 18.6094 90.4375 19.0469C92.2812 20.1094 93.2031 21.5742 93.2031 23.4414C93.2031 24.9336 92.6406 26.1055 91.5156 26.957C90.3906 27.8086 88.8477 28.2344 86.8867 28.2344C85.5039 28.2344 84.25 27.9883 83.125 27.4961C82.0078 26.9961 81.1641 26.3164 80.5938 25.457C80.0312 24.5898 79.75 23.5938 79.75 22.4688H83.875C83.875 23.3828 84.1094 24.0586 84.5781 24.4961C85.0547 24.9258 85.8242 25.1406 86.8867 25.1406C87.5664 25.1406 88.1016 24.9961 88.4922 24.707C88.8906 24.4102 89.0898 23.9961 89.0898 23.4648ZM105.402 24.8359H112.562V28H101.289V10.9375H105.402V24.8359ZM118.68 28H114.578V10.9375H118.68V28ZM134.922 10.9375V22.1055C134.922 23.3711 134.652 24.4688 134.113 25.3984C133.574 26.3203 132.801 27.0234 131.793 27.5078C130.785 27.9922 129.594 28.2344 128.219 28.2344C126.141 28.2344 124.504 27.6953 123.309 26.6172C122.113 25.5391 121.504 24.0625 121.48 22.1875V10.9375H125.617V22.2695C125.664 24.1367 126.531 25.0703 128.219 25.0703C129.07 25.0703 129.715 24.8359 130.152 24.3672C130.59 23.8984 130.809 23.1367 130.809 22.082V10.9375H134.922ZM137.5 28V10.9375H143.629C145.824 10.9375 147.492 11.3398 148.633 12.1445C149.781 12.9492 150.355 14.1172 150.355 15.6484C150.355 16.5312 150.152 17.2852 149.746 17.9102C149.34 18.5352 148.742 18.9961 147.953 19.293C148.844 19.5273 149.527 19.9648 150.004 20.6055C150.48 21.2461 150.719 22.0273 150.719 22.9492C150.719 24.6211 150.188 25.8789 149.125 26.7227C148.07 27.5586 146.504 27.9844 144.426 28H137.5ZM141.613 20.7461V24.8359H144.309C145.051 24.8359 145.621 24.668 146.02 24.332C146.418 23.9883 146.617 23.5078 146.617 22.8906C146.617 21.4688 145.91 20.7539 144.496 20.7461H141.613ZM141.613 18.0508H143.758C144.656 18.043 145.297 17.8789 145.68 17.5586C146.062 17.2383 146.254 16.7656 146.254 16.1406C146.254 15.4219 146.047 14.9062 145.633 14.5938C145.219 14.2734 144.551 14.1133 143.629 14.1133H141.613V18.0508ZM163.574 20.7695H157.105V24.8359H164.746V28H152.992V10.9375H164.77V14.1133H157.105V17.7109H163.574V20.7695ZM172.762 21.9766H170.535V28H166.422V10.9375H173.137C175.16 10.9375 176.742 11.3867 177.883 12.2852C179.023 13.1836 179.594 14.4531 179.594 16.0938C179.594 17.2812 179.352 18.2656 178.867 19.0469C178.391 19.8281 177.641 20.4609 176.617 20.9453L180.18 27.8242V28H175.773L172.762 21.9766ZM170.535 18.8008H173.137C173.918 18.8008 174.504 18.5977 174.895 18.1914C175.293 17.7773 175.492 17.2031 175.492 16.4688C175.492 15.7344 175.293 15.1602 174.895 14.7461C174.496 14.3242 173.91 14.1133 173.137 14.1133H170.535V18.8008ZM194.887 14.1133H189.766V28H185.652V14.1133H180.625V10.9375H194.887V14.1133ZM204.918 24.8125H199.281L198.297 28H193.902L200.16 10.9375H204.027L210.332 28H205.914L204.918 24.8125ZM200.266 21.6367H203.934L202.094 15.7188L200.266 21.6367ZM220.387 23.4648C220.387 22.8633 220.172 22.3945 219.742 22.0586C219.32 21.7227 218.574 21.375 217.504 21.0156C216.434 20.6562 215.559 20.3086 214.879 19.9727C212.668 18.8867 211.562 17.3945 211.562 15.4961C211.562 14.5508 211.836 13.7188 212.383 13C212.938 12.2734 213.719 11.7109 214.727 11.3125C215.734 10.9062 216.867 10.7031 218.125 10.7031C219.352 10.7031 220.449 10.9219 221.418 11.3594C222.395 11.7969 223.152 12.4219 223.691 13.2344C224.23 14.0391 224.5 14.9609 224.5 16H220.398C220.398 15.3047 220.184 14.7656 219.754 14.3828C219.332 14 218.758 13.8086 218.031 13.8086C217.297 13.8086 216.715 13.9727 216.285 14.3008C215.863 14.6211 215.652 15.0312 215.652 15.5312C215.652 15.9688 215.887 16.3672 216.355 16.7266C216.824 17.0781 217.648 17.4453 218.828 17.8281C220.008 18.2031 220.977 18.6094 221.734 19.0469C223.578 20.1094 224.5 21.5742 224.5 23.4414C224.5 24.9336 223.938 26.1055 222.812 26.957C221.688 27.8086 220.145 28.2344 218.184 28.2344C216.801 28.2344 215.547 27.9883 214.422 27.4961C213.305 26.9961 212.461 26.3164 211.891 25.457C211.328 24.5898 211.047 23.5938 211.047 22.4688H215.172C215.172 23.3828 215.406 24.0586 215.875 24.4961C216.352 24.9258 217.121 25.1406 218.184 25.1406C218.863 25.1406 219.398 24.9961 219.789 24.707C220.188 24.4102 220.387 23.9961 220.387 23.4648Z" fill="#58EFEC"/>
<g filter="url(#filter0_f)">
<path d="M24.6836 14.1133H19.5625V28H15.4492V14.1133H10.4219V10.9375H24.6836V14.1133ZM40.5508 19.8203C40.5508 21.4844 40.2422 22.957 39.625 24.2383C39.0078 25.5195 38.1289 26.5078 36.9883 27.2031C35.8555 27.8906 34.5625 28.2344 33.1094 28.2344C31.6562 28.2344 30.3672 27.9023 29.2422 27.2383C28.1172 26.5664 27.2383 25.6094 26.6055 24.3672C25.9805 23.125 25.6523 21.6992 25.6211 20.0898V19.1289C25.6211 17.457 25.9258 15.9844 26.5352 14.7109C27.1523 13.4297 28.0312 12.4414 29.1719 11.7461C30.3203 11.0508 31.625 10.7031 33.0859 10.7031C34.5312 10.7031 35.8203 11.0469 36.9531 11.7344C38.0859 12.4219 38.9648 13.4023 39.5898 14.6758C40.2227 15.9414 40.543 17.3945 40.5508 19.0352V19.8203ZM36.3672 19.1055C36.3672 17.4102 36.082 16.125 35.5117 15.25C34.9492 14.3672 34.1406 13.9258 33.0859 13.9258C31.0234 13.9258 29.9336 15.4727 29.8164 18.5664L29.8047 19.8203C29.8047 21.4922 30.082 22.7773 30.6367 23.6758C31.1914 24.5742 32.0156 25.0234 33.1094 25.0234C34.1484 25.0234 34.9492 24.582 35.5117 23.6992C36.0742 22.8164 36.3594 21.5469 36.3672 19.8906V19.1055ZM48.0742 10.9375L51.8828 22.8086L55.6797 10.9375H61.0938V28H56.9688V24.0156L57.3672 15.8594L53.2422 28H50.5234L46.3867 15.8477L46.7852 24.0156V28H42.6719V10.9375H48.0742ZM73.6211 24.8125H67.9844L67 28H62.6055L68.8633 10.9375H72.7305L79.0352 28H74.6172L73.6211 24.8125ZM68.9688 21.6367H72.6367L70.7969 15.7188L68.9688 21.6367ZM89.0898 23.4648C89.0898 22.8633 88.875 22.3945 88.4453 22.0586C88.0234 21.7227 87.2773 21.375 86.207 21.0156C85.1367 20.6562 84.2617 20.3086 83.582 19.9727C81.3711 18.8867 80.2656 17.3945 80.2656 15.4961C80.2656 14.5508 80.5391 13.7188 81.0859 13C81.6406 12.2734 82.4219 11.7109 83.4297 11.3125C84.4375 10.9062 85.5703 10.7031 86.8281 10.7031C88.0547 10.7031 89.1523 10.9219 90.1211 11.3594C91.0977 11.7969 91.8555 12.4219 92.3945 13.2344C92.9336 14.0391 93.2031 14.9609 93.2031 16H89.1016C89.1016 15.3047 88.8867 14.7656 88.457 14.3828C88.0352 14 87.4609 13.8086 86.7344 13.8086C86 13.8086 85.418 13.9727 84.9883 14.3008C84.5664 14.6211 84.3555 15.0312 84.3555 15.5312C84.3555 15.9688 84.5898 16.3672 85.0586 16.7266C85.5273 17.0781 86.3516 17.4453 87.5312 17.8281C88.7109 18.2031 89.6797 18.6094 90.4375 19.0469C92.2812 20.1094 93.2031 21.5742 93.2031 23.4414C93.2031 24.9336 92.6406 26.1055 91.5156 26.957C90.3906 27.8086 88.8477 28.2344 86.8867 28.2344C85.5039 28.2344 84.25 27.9883 83.125 27.4961C82.0078 26.9961 81.1641 26.3164 80.5938 25.457C80.0312 24.5898 79.75 23.5938 79.75 22.4688H83.875C83.875 23.3828 84.1094 24.0586 84.5781 24.4961C85.0547 24.9258 85.8242 25.1406 86.8867 25.1406C87.5664 25.1406 88.1016 24.9961 88.4922 24.707C88.8906 24.4102 89.0898 23.9961 89.0898 23.4648ZM105.402 24.8359H112.562V28H101.289V10.9375H105.402V24.8359ZM118.68 28H114.578V10.9375H118.68V28ZM134.922 10.9375V22.1055C134.922 23.3711 134.652 24.4688 134.113 25.3984C133.574 26.3203 132.801 27.0234 131.793 27.5078C130.785 27.9922 129.594 28.2344 128.219 28.2344C126.141 28.2344 124.504 27.6953 123.309 26.6172C122.113 25.5391 121.504 24.0625 121.48 22.1875V10.9375H125.617V22.2695C125.664 24.1367 126.531 25.0703 128.219 25.0703C129.07 25.0703 129.715 24.8359 130.152 24.3672C130.59 23.8984 130.809 23.1367 130.809 22.082V10.9375H134.922ZM137.5 28V10.9375H143.629C145.824 10.9375 147.492 11.3398 148.633 12.1445C149.781 12.9492 150.355 14.1172 150.355 15.6484C150.355 16.5312 150.152 17.2852 149.746 17.9102C149.34 18.5352 148.742 18.9961 147.953 19.293C148.844 19.5273 149.527 19.9648 150.004 20.6055C150.48 21.2461 150.719 22.0273 150.719 22.9492C150.719 24.6211 150.188 25.8789 149.125 26.7227C148.07 27.5586 146.504 27.9844 144.426 28H137.5ZM141.613 20.7461V24.8359H144.309C145.051 24.8359 145.621 24.668 146.02 24.332C146.418 23.9883 146.617 23.5078 146.617 22.8906C146.617 21.4688 145.91 20.7539 144.496 20.7461H141.613ZM141.613 18.0508H143.758C144.656 18.043 145.297 17.8789 145.68 17.5586C146.062 17.2383 146.254 16.7656 146.254 16.1406C146.254 15.4219 146.047 14.9062 145.633 14.5938C145.219 14.2734 144.551 14.1133 143.629 14.1133H141.613V18.0508ZM163.574 20.7695H157.105V24.8359H164.746V28H152.992V10.9375H164.77V14.1133H157.105V17.7109H163.574V20.7695ZM172.762 21.9766H170.535V28H166.422V10.9375H173.137C175.16 10.9375 176.742 11.3867 177.883 12.2852C179.023 13.1836 179.594 14.4531 179.594 16.0938C179.594 17.2812 179.352 18.2656 178.867 19.0469C178.391 19.8281 177.641 20.4609 176.617 20.9453L180.18 27.8242V28H175.773L172.762 21.9766ZM170.535 18.8008H173.137C173.918 18.8008 174.504 18.5977 174.895 18.1914C175.293 17.7773 175.492 17.2031 175.492 16.4688C175.492 15.7344 175.293 15.1602 174.895 14.7461C174.496 14.3242 173.91 14.1133 173.137 14.1133H170.535V18.8008ZM194.887 14.1133H189.766V28H185.652V14.1133H180.625V10.9375H194.887V14.1133ZM204.918 24.8125H199.281L198.297 28H193.902L200.16 10.9375H204.027L210.332 28H205.914L204.918 24.8125ZM200.266 21.6367H203.934L202.094 15.7188L200.266 21.6367ZM220.387 23.4648C220.387 22.8633 220.172 22.3945 219.742 22.0586C219.32 21.7227 218.574 21.375 217.504 21.0156C216.434 20.6562 215.559 20.3086 214.879 19.9727C212.668 18.8867 211.562 17.3945 211.562 15.4961C211.562 14.5508 211.836 13.7188 212.383 13C212.938 12.2734 213.719 11.7109 214.727 11.3125C215.734 10.9062 216.867 10.7031 218.125 10.7031C219.352 10.7031 220.449 10.9219 221.418 11.3594C222.395 11.7969 223.152 12.4219 223.691 13.2344C224.23 14.0391 224.5 14.9609 224.5 16H220.398C220.398 15.3047 220.184 14.7656 219.754 14.3828C219.332 14 218.758 13.8086 218.031 13.8086C217.297 13.8086 216.715 13.9727 216.285 14.3008C215.863 14.6211 215.652 15.0312 215.652 15.5312C215.652 15.9688 215.887 16.3672 216.355 16.7266C216.824 17.0781 217.648 17.4453 218.828 17.8281C220.008 18.2031 220.977 18.6094 221.734 19.0469C223.578 20.1094 224.5 21.5742 224.5 23.4414C224.5 24.9336 223.938 26.1055 222.812 26.957C221.688 27.8086 220.145 28.2344 218.184 28.2344C216.801 28.2344 215.547 27.9883 214.422 27.4961C213.305 26.9961 212.461 26.3164 211.891 25.457C211.328 24.5898 211.047 23.5938 211.047 22.4688H215.172C215.172 23.3828 215.406 24.0586 215.875 24.4961C216.352 24.9258 217.121 25.1406 218.184 25.1406C218.863 25.1406 219.398 24.9961 219.789 24.707C220.188 24.4102 220.387 23.9961 220.387 23.4648Z" fill="#58EFEC"/>
</g>
<defs>
<filter id="filter0_f" x="0.421875" y="0.703125" width="234.078" height="37.5312" filterUnits="userSpaceOnUse" color-interpolation-filters="sRGB">
<feFlood flood-opacity="0" result="BackgroundImageFix"/>
<feBlend mode="normal" in="SourceGraphic" in2="BackgroundImageFix" result="shape"/>
<feGaussianBlur stdDeviation="5" result="effect1_foregroundBlur"/>
</filter>
</defs>
</svg>
