<svg width="59" height="59" viewBox="0 0 59 59" fill="none" xmlns="http://www.w3.org/2000/svg">
<mask id="path-2-outside-1" maskUnits="userSpaceOnUse" x="15.5056" y="28.94" width="29" height="15" fill="black">
<rect fill="white" x="15.5056" y="28.94" width="29" height="15"/>
<path fill-rule="evenodd" clip-rule="evenodd" d="M29.0914 42.69C29.4693 43.0233 30.0363 43.0233 30.4142 42.69L42.165 32.3268C42.8561 31.7173 42.4251 30.5768 41.5036 30.5768V30.5768C41.3531 30.5768 41.2078 30.6317 41.0949 30.7313L30.4142 40.1507C30.0363 40.484 29.4693 40.484 29.0914 40.1507L18.4107 30.7313C18.2978 30.6317 18.1525 30.5768 18.002 30.5768V30.5768C17.0805 30.5768 16.6495 31.7173 17.3406 32.3268L29.0914 42.69Z"/>
</mask>
<path fill-rule="evenodd" clip-rule="evenodd" d="M29.0914 42.69C29.4693 43.0233 30.0363 43.0233 30.4142 42.69L42.165 32.3268C42.8561 31.7173 42.4251 30.5768 41.5036 30.5768V30.5768C41.3531 30.5768 41.2078 30.6317 41.0949 30.7313L30.4142 40.1507C30.0363 40.484 29.4693 40.484 29.0914 40.1507L18.4107 30.7313C18.2978 30.6317 18.1525 30.5768 18.002 30.5768V30.5768C17.0805 30.5768 16.6495 31.7173 17.3406 32.3268L29.0914 42.69Z" fill="white"/>
<path d="M30.4142 42.69L29.7528 41.94L29.7528 41.94L30.4142 42.69ZM29.0914 42.69L28.4299 43.44L28.4299 43.44L29.0914 42.69ZM42.165 32.3268L42.8265 33.0768L42.8265 33.0768L42.165 32.3268ZM30.4142 40.1507L29.7528 39.4007L29.7528 39.4007L30.4142 40.1507ZM29.0914 40.1507L28.4299 40.9007L28.4299 40.9007L29.0914 40.1507ZM17.3406 32.3268L18.002 31.5768L18.002 31.5768L17.3406 32.3268ZM18.4107 30.7313L17.7493 31.4813L18.4107 30.7313ZM41.0949 30.7313L41.7563 31.4813L41.0949 30.7313ZM29.7528 41.94L29.7528 41.94L28.4299 43.44C29.1859 44.1066 30.3197 44.1066 31.0757 43.44L29.7528 41.94ZM41.5036 31.5768L29.7528 41.94L31.0757 43.44L42.8265 33.0768L41.5036 31.5768ZM41.5036 31.5768L41.5036 31.5768L42.8265 33.0768C44.2086 31.8578 43.3465 29.5768 41.5036 29.5768L41.5036 31.5768ZM40.4335 29.9813L29.7528 39.4007L31.0757 40.9007L41.7563 31.4813L40.4335 29.9813ZM29.7528 39.4007L29.7528 39.4007L28.4299 40.9007C29.1859 41.5673 30.3197 41.5673 31.0757 40.9007L29.7528 39.4007ZM29.7528 39.4007L19.0721 29.9813L17.7493 31.4813L28.4299 40.9007L29.7528 39.4007ZM18.002 31.5768L18.002 31.5768L18.002 29.5768C16.1591 29.5768 15.297 31.8578 16.6791 33.0768L18.002 31.5768ZM29.7528 41.94L18.002 31.5768L16.6791 33.0768L28.4299 43.44L29.7528 41.94ZM19.0721 29.9813C18.7766 29.7206 18.3961 29.5768 18.002 29.5768L18.002 31.5768C17.9089 31.5768 17.8191 31.5428 17.7493 31.4813L19.0721 29.9813ZM41.5036 29.5768C41.1095 29.5768 40.729 29.7206 40.4335 29.9813L41.7563 31.4813C41.6865 31.5428 41.5967 31.5768 41.5036 31.5768L41.5036 29.5768Z" fill="white" mask="url(#path-2-outside-1)"/>
<mask id="path-4-outside-2" maskUnits="userSpaceOnUse" x="15.5056" y="17.3632" width="29" height="15" fill="black">
<rect fill="white" x="15.5056" y="17.3632" width="29" height="15"/>
<path fill-rule="evenodd" clip-rule="evenodd" d="M29.0914 31.1132C29.4693 31.4465 30.0363 31.4465 30.4142 31.1132L42.165 20.75C42.8561 20.1405 42.4251 19 41.5036 19V19C41.3531 19 41.2078 19.0549 41.0949 19.1545L30.4142 28.5739C30.0363 28.9072 29.4693 28.9072 29.0914 28.5739L18.4107 19.1545C18.2978 19.0549 18.1525 19 18.002 19V19C17.0805 19 16.6495 20.1405 17.3406 20.75L29.0914 31.1132Z"/>
</mask>
<path fill-rule="evenodd" clip-rule="evenodd" d="M29.0914 31.1132C29.4693 31.4465 30.0363 31.4465 30.4142 31.1132L42.165 20.75C42.8561 20.1405 42.4251 19 41.5036 19V19C41.3531 19 41.2078 19.0549 41.0949 19.1545L30.4142 28.5739C30.0363 28.9072 29.4693 28.9072 29.0914 28.5739L18.4107 19.1545C18.2978 19.0549 18.1525 19 18.002 19V19C17.0805 19 16.6495 20.1405 17.3406 20.75L29.0914 31.1132Z" fill="white"/>
<path d="M30.4142 31.1132L29.7528 30.3632L29.7528 30.3632L30.4142 31.1132ZM29.0914 31.1132L28.4299 31.8632L28.4299 31.8632L29.0914 31.1132ZM42.165 20.75L42.8265 21.5L42.8265 21.5L42.165 20.75ZM30.4142 28.5739L29.7528 27.8239L29.7528 27.8239L30.4142 28.5739ZM29.0914 28.5739L28.4299 29.3239L28.4299 29.3239L29.0914 28.5739ZM17.3406 20.75L18.002 20L18.002 20L17.3406 20.75ZM18.4107 19.1545L17.7493 19.9045L18.4107 19.1545ZM41.0949 19.1545L41.7563 19.9045L41.0949 19.1545ZM29.7528 30.3632L29.7528 30.3632L28.4299 31.8632C29.1859 32.5298 30.3197 32.5298 31.0757 31.8632L29.7528 30.3632ZM41.5036 20L29.7528 30.3632L31.0757 31.8632L42.8265 21.5L41.5036 20ZM41.5036 20L41.5036 20L42.8265 21.5C44.2086 20.2811 43.3465 18 41.5036 18L41.5036 20ZM40.4335 18.4045L29.7528 27.8239L31.0757 29.3239L41.7563 19.9045L40.4335 18.4045ZM29.7528 27.8239L29.7528 27.8239L28.4299 29.3239C29.1859 29.9905 30.3197 29.9905 31.0757 29.3239L29.7528 27.8239ZM29.7528 27.8239L19.0721 18.4045L17.7493 19.9045L28.4299 29.3239L29.7528 27.8239ZM18.002 20L18.002 20L18.002 18C16.1591 18 15.297 20.2811 16.6791 21.5L18.002 20ZM29.7528 30.3632L18.002 20L16.6791 21.5L28.4299 31.8632L29.7528 30.3632ZM19.0721 18.4045C18.7766 18.1438 18.3961 18 18.002 18L18.002 20C17.9089 20 17.8191 19.966 17.7493 19.9045L19.0721 18.4045ZM41.5036 18C41.1095 18 40.729 18.1438 40.4335 18.4045L41.7563 19.9045C41.6865 19.966 41.5967 20 41.5036 20L41.5036 18Z" fill="white" mask="url(#path-4-outside-2)"/>
<rect x="2.5" y="2.5" width="54" height="54" rx="27" stroke="white" stroke-width="5"/>
</svg>
