<svg width="59" height="59" viewBox="0 0 59 59" fill="none" xmlns="http://www.w3.org/2000/svg">
<g id="scroll-down-icon">
<g id="circle">
<g id="arrow2">
<path id="arrow2_2" d="M28.7607 43.0648C29.3276 43.5648 30.178 43.5648 30.745 43.0648L42.4958 32.7017C43.5324 31.7875 42.8858 30.0767 41.5036 30.0767C41.2313 30.0767 40.9684 30.176 40.7642 30.3561L30.0835 39.7755C29.8946 39.9422 29.6111 39.9422 29.4221 39.7755L18.7414 30.3561C18.5372 30.176 18.2743 30.0767 18.002 30.0767C16.6198 30.0767 15.9732 31.7875 17.0099 32.7017L28.7607 43.0648Z" fill="white" stroke="white"/>
</g>
<g id="arrow1">
<path id="arrow1_2" d="M28.7607 31.4882C29.3276 31.9882 30.178 31.9882 30.745 31.4882L42.4958 21.125C43.5324 20.2108 42.8858 18.5 41.5036 18.5C41.2313 18.5 40.9684 18.5994 40.7642 18.7795L30.0835 28.1989C29.8946 28.3655 29.6111 28.3655 29.4221 28.1989L18.7414 18.7795C18.5372 18.5994 18.2743 18.5 18.002 18.5C16.6198 18.5 15.9732 20.2108 17.0099 21.125L28.7607 31.4882Z" fill="white" stroke="white"/>
</g>
<rect x="2.5" y="2.5" width="54" height="54" rx="27" stroke="white" stroke-width="5"/>
</g>
</g>
</svg>
