<svg width="109" height="106" viewBox="0 0 109 106" fill="none" xmlns="http://www.w3.org/2000/svg">
<g clip-path="url(#clip0)">
<path d="M79.0108 57.6715C82.9452 59.4147 85.4873 63.3214 85.4873 67.6239V72.8258C85.4873 73.6752 86.1759 74.3639 87.0254 74.3639C87.8748 74.3639 88.5634 73.6752 88.5634 72.8258V67.6239C88.5634 62.1055 85.3029 57.095 80.2398 54.8517L63.5597 47.704C63.5601 47.6619 63.5634 47.6195 63.5634 47.5777V40.9387C66.9987 37.8833 69.1684 33.4344 69.1684 28.4865L69.1735 15.6354C69.1735 12.2176 68.1456 8.93189 66.2011 6.13322C64.3017 3.39935 61.6659 1.31537 58.5786 0.106033C57.978 -0.128984 57.2947 0.035282 56.8667 0.517826L54.5475 3.13398C53.1915 4.6337 51.2554 5.49379 49.236 5.49379H44.6722C39.7951 5.49379 35.8271 9.46119 35.8271 14.3379V22.6529V22.6531C35.8271 22.6531 35.8271 22.6531 35.8271 22.6533V28.4863C35.8271 33.4366 37.9988 37.8876 41.4371 40.943V47.5777C41.4371 47.6408 41.4419 47.7042 41.4431 47.7674L24.9843 54.9219C19.7922 57.1069 16.4371 62.1582 16.4371 67.7908V72.826C16.4371 73.6754 17.1258 74.3641 17.9752 74.3641C18.8246 74.3641 19.5133 73.6754 19.5133 72.826V67.7908C19.5133 63.3993 22.129 59.461 26.194 57.7503L34.3688 54.1969C35.7184 57.4646 37.9141 60.2889 40.792 62.4315C44.1962 64.9661 48.2438 66.3058 52.4979 66.3058C55.861 66.3058 59.1801 65.44 62.0961 63.8018C62.5067 63.5711 62.9148 63.3222 63.3089 63.0615C64.0175 62.5929 64.2121 61.6387 63.7435 60.9302C63.2749 60.2216 62.3207 60.027 61.6121 60.4956C61.2797 60.7155 60.9358 60.9255 60.5894 61.1199C58.1324 62.5 55.3343 63.2297 52.4977 63.2297C45.7064 63.2297 39.7168 59.1604 37.1886 52.9712L41.9472 50.9028C43.3696 55.4274 47.603 58.6397 52.5004 58.6397C57.4325 58.6397 61.6747 55.4005 63.0735 50.8425L67.8409 52.8854C67.3618 54.071 66.7462 55.1983 66.0003 56.2493C65.5088 56.9421 65.6716 57.9022 66.3644 58.3938C66.6344 58.5855 66.9453 58.6776 67.2532 58.6776C67.7347 58.6776 68.2088 58.452 68.5088 58.0296C69.3812 56.8003 70.1027 55.4823 70.6679 54.0968L79.0108 57.6715ZM38.9032 28.4863V24.0501C39.6003 23.9129 40.2764 23.6777 40.906 23.3502C41.8385 22.8652 42.6768 22.17 43.33 21.3394C43.8554 20.6719 43.7399 19.7047 43.0724 19.1795C42.4047 18.6539 41.4378 18.7694 40.9126 19.4371C40.5274 19.9266 40.0342 20.336 39.4865 20.6208C39.2888 20.7236 39.0933 20.8054 38.9032 20.871V14.3379C38.9032 11.1574 41.4913 8.56993 44.6722 8.56993H49.236C52.1235 8.56993 54.8912 7.3405 56.8394 5.18577L58.4281 3.39361C63.1205 5.65621 66.0973 10.3531 66.0973 15.6352V18.7776C64.1682 19.4917 62.1375 19.8575 60.0499 19.8575C55.5033 19.8575 51.1971 18.1195 47.9247 14.9636C47.3134 14.374 46.3397 14.3916 45.7499 15.003C45.1603 15.6145 45.1777 16.588 45.7893 17.1778C49.6381 20.8897 54.7027 22.9337 60.0499 22.9337C62.1191 22.9337 64.1428 22.631 66.0883 22.0319C66.0934 22.1242 66.0922 28.4863 66.0922 28.4863C66.0922 35.9812 59.9937 42.0788 52.4977 42.0788C45.0018 42.0788 38.9032 35.9812 38.9032 28.4863ZM52.5002 55.5633C48.4702 55.5633 45.0627 52.5526 44.5736 48.5583C44.5336 48.2343 44.5133 47.9044 44.5133 47.5775V43.1144C46.8858 44.4144 49.6068 45.1549 52.4977 45.1549C55.3907 45.1549 58.1135 44.4131 60.4873 43.1113V47.5777C60.4873 47.8881 60.4688 48.2019 60.4317 48.5142C59.965 52.5329 56.5554 55.5633 52.5002 55.5633Z" fill="#58EFEC"/>
<path d="M65.2369 86.2584L57.7325 85.1681L54.3765 78.369C54.0237 77.6545 53.3099 77.2107 52.5129 77.2107C51.716 77.2107 51.0021 77.6547 50.6496 78.369L47.2935 85.1683L39.789 86.2587C39.0005 86.3733 38.3575 86.9153 38.1115 87.6733C37.8654 88.431 38.067 89.2472 38.6375 89.8032L44.0677 95.0956L42.7858 102.569C42.6512 103.354 42.9679 104.132 43.6124 104.601C44.257 105.069 45.0953 105.13 45.8008 104.759L52.5129 101.231L59.2253 104.759C59.5319 104.92 59.8637 105 60.1939 105C60.6229 105 61.0492 104.865 61.4134 104.601C62.058 104.132 62.3748 103.354 62.2401 102.568L60.9582 95.0956L66.3882 89.8032C66.9589 89.2472 67.1605 88.431 66.9144 87.6733C66.6685 86.9153 66.0256 86.3733 65.2369 86.2584ZM51.6182 79.7305L51.6192 79.7327C51.6188 79.7319 51.6184 79.7311 51.6182 79.7305C51.618 79.7305 51.618 79.7305 51.6182 79.7305ZM58.4355 93.2589C57.9456 93.7365 57.7223 94.4242 57.8379 95.0983L58.8668 101.095L53.4799 98.2636C52.8741 97.9453 52.1514 97.9455 51.546 98.2636L46.1593 101.095L47.1881 95.0983C47.3038 94.424 47.0805 93.7363 46.5903 93.2587L42.2329 89.0118L48.2547 88.1369C48.9321 88.0385 49.5172 87.6134 49.8195 87.0002L52.5129 81.5435L55.206 86.9996C55.5087 87.6134 56.0938 88.0385 56.7709 88.1367L62.793 89.0118L58.4355 93.2589Z" fill="#58EFEC"/>
<path d="M30.6998 86.2584L23.1954 85.1681L19.8393 78.369C19.4866 77.6545 18.7727 77.2107 17.9758 77.2107C17.1789 77.2107 16.465 77.6547 16.1125 78.369L12.7564 85.1683L5.25187 86.2587C4.46335 86.3733 3.82044 86.9153 3.57435 87.6733C3.32826 88.431 3.52984 89.2472 4.10037 89.8032L9.53058 95.0956L8.24865 102.569C8.11412 103.354 8.43075 104.132 9.07531 104.601C9.71986 105.069 10.5582 105.13 11.2637 104.759L17.9758 101.231L24.6882 104.759C24.9948 104.92 25.3266 105 25.6567 105C26.0858 105 26.5121 104.865 26.8763 104.601C27.5209 104.132 27.8377 103.354 27.703 102.568L26.4211 95.0956L31.8511 89.8032C32.4218 89.2472 32.6234 88.431 32.3773 87.6733C32.1314 86.9153 31.4885 86.3733 30.6998 86.2584ZM17.0809 79.7305L17.0819 79.7327C17.0817 79.7319 17.0813 79.7311 17.0809 79.7305ZM23.8984 93.2589C23.4085 93.7365 23.1852 94.4242 23.3008 95.0983L24.3297 101.095L18.9428 98.2636C18.3372 97.9455 17.6145 97.9455 17.0089 98.2636L11.6221 101.095L12.651 95.0983C12.7667 94.424 12.5434 93.7363 12.0532 93.2587L7.69576 89.0118L13.7176 88.1369C14.395 88.0385 14.9801 87.6134 15.2823 87.0002L17.9758 81.5435L20.6689 86.9996C20.9716 87.6134 21.5567 88.0385 22.2338 88.1367L28.2559 89.0118L23.8984 93.2589Z" fill="#58EFEC"/>
<path d="M101.426 87.6731C101.18 86.9151 100.537 86.3731 99.7482 86.2584L92.2439 85.1681L88.8878 78.369C88.5351 77.6545 87.8212 77.2107 87.0243 77.2107C86.2274 77.2107 85.5135 77.6547 85.161 78.369L81.8049 85.1683L74.3003 86.2587C73.5118 86.3733 72.8689 86.9153 72.6228 87.6733C72.3767 88.431 72.5783 89.2472 73.1488 89.8032L78.579 95.0956L77.2971 102.569C77.1626 103.354 77.4792 104.132 78.1238 104.601C78.7683 105.069 79.6067 105.13 80.3121 104.759L87.0243 101.231L93.7366 104.759C94.0432 104.92 94.375 105 94.7052 105C95.1342 105 95.5606 104.865 95.9248 104.601C96.5693 104.132 96.8862 103.354 96.7514 102.568L95.4695 95.0956L100.9 89.8032C101.47 89.247 101.672 88.431 101.426 87.6731ZM86.1293 79.7305L86.1304 79.7327C86.1299 79.7319 86.1295 79.7311 86.1293 79.7305C86.1291 79.7305 86.1291 79.7305 86.1293 79.7305ZM92.9467 93.2589C92.4567 93.7365 92.2334 94.4242 92.3491 95.0983L93.378 101.095L87.991 98.2636C87.3854 97.9455 86.6627 97.9455 86.0571 98.2636L80.6704 101.095L81.6993 95.0983C81.8149 94.424 81.5916 93.7363 81.1015 93.2587L76.744 89.0118L82.7659 88.1369C83.4432 88.0385 84.0283 87.6134 84.3306 87.0002L87.0241 81.5435L89.7171 86.9996C90.0198 87.6134 90.6049 88.0385 91.2821 88.1367L97.3041 89.0118L92.9467 93.2589Z" fill="#58EFEC"/>
</g>
<g clip-path="url(#clip1)">
<path d="M83.0108 58.6715C86.9452 60.4147 89.4873 64.3214 89.4873 68.6239V73.8258C89.4873 74.6752 90.1759 75.3639 91.0254 75.3639C91.8748 75.3639 92.5634 74.6752 92.5634 73.8258V68.6239C92.5634 63.1055 89.3029 58.095 84.2398 55.8517L67.5597 48.704C67.5601 48.6619 67.5634 48.6195 67.5634 48.5777V41.9387C70.9987 38.8833 73.1684 34.4344 73.1684 29.4865L73.1735 16.6354C73.1735 13.2176 72.1456 9.93189 70.2011 7.13322C68.3017 4.39935 65.6659 2.31537 62.5786 1.10603C61.978 0.871016 61.2947 1.03528 60.8667 1.51783L58.5475 4.13398C57.1915 5.6337 55.2554 6.49379 53.236 6.49379H48.6722C43.7951 6.49379 39.8271 10.4612 39.8271 15.3379V23.6529V23.6531C39.8271 23.6531 39.8271 23.6531 39.8271 23.6533V29.4863C39.8271 34.4366 41.9988 38.8876 45.4371 41.943V48.5777C45.4371 48.6408 45.4419 48.7042 45.4431 48.7674L28.9843 55.9219C23.7922 58.1069 20.4371 63.1582 20.4371 68.7908V73.826C20.4371 74.6754 21.1258 75.3641 21.9752 75.3641C22.8246 75.3641 23.5133 74.6754 23.5133 73.826V68.7908C23.5133 64.3993 26.129 60.461 30.194 58.7503L38.3688 55.1969C39.7184 58.4646 41.9141 61.2889 44.792 63.4315C48.1962 65.9661 52.2438 67.3058 56.4979 67.3058C59.861 67.3058 63.1801 66.44 66.0961 64.8018C66.5067 64.5711 66.9148 64.3222 67.3089 64.0615C68.0175 63.5929 68.2121 62.6387 67.7435 61.9302C67.2749 61.2216 66.3207 61.027 65.6121 61.4956C65.2797 61.7155 64.9358 61.9255 64.5894 62.1199C62.1324 63.5 59.3343 64.2297 56.4977 64.2297C49.7064 64.2297 43.7168 60.1604 41.1886 53.9712L45.9472 51.9028C47.3696 56.4274 51.603 59.6397 56.5004 59.6397C61.4325 59.6397 65.6747 56.4005 67.0735 51.8425L71.8409 53.8854C71.3618 55.071 70.7462 56.1983 70.0003 57.2493C69.5088 57.9421 69.6716 58.9022 70.3644 59.3938C70.6344 59.5855 70.9453 59.6776 71.2532 59.6776C71.7347 59.6776 72.2088 59.452 72.5088 59.0296C73.3812 57.8003 74.1027 56.4823 74.6679 55.0968L83.0108 58.6715ZM42.9032 29.4863V25.0501C43.6003 24.9129 44.2764 24.6777 44.906 24.3502C45.8385 23.8652 46.6768 23.17 47.33 22.3394C47.8554 21.6719 47.7399 20.7047 47.0724 20.1795C46.4047 19.6539 45.4378 19.7694 44.9126 20.4371C44.5274 20.9266 44.0342 21.336 43.4865 21.6208C43.2888 21.7236 43.0933 21.8054 42.9032 21.871V15.3379C42.9032 12.1574 45.4913 9.56993 48.6722 9.56993H53.236C56.1235 9.56993 58.8912 8.3405 60.8394 6.18577L62.4281 4.39361C67.1205 6.65621 70.0973 11.3531 70.0973 16.6352V19.7776C68.1682 20.4917 66.1375 20.8575 64.0499 20.8575C59.5033 20.8575 55.1971 19.1195 51.9247 15.9636C51.3134 15.374 50.3397 15.3916 49.7499 16.003C49.1603 16.6145 49.1777 17.588 49.7893 18.1778C53.6381 21.8897 58.7027 23.9337 64.0499 23.9337C66.1191 23.9337 68.1428 23.631 70.0883 23.0319C70.0934 23.1242 70.0922 29.4863 70.0922 29.4863C70.0922 36.9812 63.9937 43.0788 56.4977 43.0788C49.0018 43.0788 42.9032 36.9812 42.9032 29.4863ZM56.5002 56.5633C52.4702 56.5633 49.0627 53.5526 48.5736 49.5583C48.5336 49.2343 48.5133 48.9044 48.5133 48.5775V44.1144C50.8858 45.4144 53.6068 46.1549 56.4977 46.1549C59.3907 46.1549 62.1135 45.4131 64.4873 44.1113V48.5777C64.4873 48.8881 64.4688 49.2019 64.4317 49.5142C63.965 53.5329 60.5554 56.5633 56.5002 56.5633Z" fill="black"/>
<path d="M69.2369 87.2584L61.7325 86.1681L58.3765 79.369C58.0237 78.6545 57.3099 78.2107 56.5129 78.2107C55.716 78.2107 55.0021 78.6547 54.6496 79.369L51.2935 86.1683L43.789 87.2587C43.0005 87.3733 42.3575 87.9153 42.1115 88.6733C41.8654 89.431 42.067 90.2472 42.6375 90.8032L48.0677 96.0956L46.7858 103.569C46.6512 104.354 46.9679 105.132 47.6124 105.601C48.257 106.069 49.0953 106.13 49.8008 105.759L56.5129 102.231L63.2253 105.759C63.5319 105.92 63.8637 106 64.1939 106C64.6229 106 65.0492 105.865 65.4134 105.601C66.058 105.132 66.3748 104.354 66.2401 103.568L64.9582 96.0956L70.3882 90.8032C70.9589 90.2472 71.1605 89.431 70.9144 88.6733C70.6685 87.9153 70.0256 87.3733 69.2369 87.2584ZM55.6182 80.7305L55.6192 80.7327C55.6188 80.7319 55.6184 80.7311 55.6182 80.7305C55.618 80.7305 55.618 80.7305 55.6182 80.7305ZM62.4355 94.2589C61.9456 94.7365 61.7223 95.4242 61.8379 96.0983L62.8668 102.095L57.4799 99.2636C56.8741 98.9453 56.1514 98.9455 55.546 99.2636L50.1593 102.095L51.1881 96.0983C51.3038 95.424 51.0805 94.7363 50.5903 94.2587L46.2329 90.0118L52.2547 89.1369C52.9321 89.0385 53.5172 88.6134 53.8195 88.0002L56.5129 82.5435L59.206 87.9996C59.5087 88.6134 60.0938 89.0385 60.7709 89.1367L66.793 90.0118L62.4355 94.2589Z" fill="black"/>
<path d="M34.6998 87.2584L27.1954 86.1681L23.8393 79.369C23.4866 78.6545 22.7727 78.2107 21.9758 78.2107C21.1789 78.2107 20.465 78.6547 20.1125 79.369L16.7564 86.1683L9.25187 87.2587C8.46335 87.3733 7.82044 87.9153 7.57435 88.6733C7.32826 89.431 7.52984 90.2472 8.10037 90.8032L13.5306 96.0956L12.2486 103.569C12.1141 104.354 12.4308 105.132 13.0753 105.601C13.7199 106.069 14.5582 106.13 15.2637 105.759L21.9758 102.231L28.6882 105.759C28.9948 105.92 29.3266 106 29.6567 106C30.0858 106 30.5121 105.865 30.8763 105.601C31.5209 105.132 31.8377 104.354 31.703 103.568L30.4211 96.0956L35.8511 90.8032C36.4218 90.2472 36.6234 89.431 36.3773 88.6733C36.1314 87.9153 35.4885 87.3733 34.6998 87.2584ZM21.0809 80.7305L21.0819 80.7327C21.0817 80.7319 21.0813 80.7311 21.0809 80.7305ZM27.8984 94.2589C27.4085 94.7365 27.1852 95.4242 27.3008 96.0983L28.3297 102.095L22.9428 99.2636C22.3372 98.9455 21.6145 98.9455 21.0089 99.2636L15.6221 102.095L16.651 96.0983C16.7667 95.424 16.5434 94.7363 16.0532 94.2587L11.6958 90.0118L17.7176 89.1369C18.395 89.0385 18.9801 88.6134 19.2823 88.0002L21.9758 82.5435L24.6689 87.9996C24.9716 88.6134 25.5567 89.0385 26.2338 89.1367L32.2559 90.0118L27.8984 94.2589Z" fill="black"/>
<path d="M105.426 88.6731C105.18 87.9151 104.537 87.3731 103.748 87.2584L96.2439 86.1681L92.8878 79.369C92.5351 78.6545 91.8212 78.2107 91.0243 78.2107C90.2274 78.2107 89.5135 78.6547 89.161 79.369L85.8049 86.1683L78.3003 87.2587C77.5118 87.3733 76.8689 87.9153 76.6228 88.6733C76.3767 89.431 76.5783 90.2472 77.1488 90.8032L82.579 96.0956L81.2971 103.569C81.1626 104.354 81.4792 105.132 82.1238 105.601C82.7683 106.069 83.6067 106.13 84.3121 105.759L91.0243 102.231L97.7366 105.759C98.0432 105.92 98.375 106 98.7052 106C99.1342 106 99.5606 105.865 99.9248 105.601C100.569 105.132 100.886 104.354 100.751 103.568L99.4695 96.0956L104.9 90.8032C105.47 90.247 105.672 89.431 105.426 88.6731ZM90.1293 80.7305L90.1304 80.7327C90.1299 80.7319 90.1295 80.7311 90.1293 80.7305C90.1291 80.7305 90.1291 80.7305 90.1293 80.7305ZM96.9467 94.2589C96.4567 94.7365 96.2334 95.4242 96.3491 96.0983L97.378 102.095L91.991 99.2636C91.3854 98.9455 90.6627 98.9455 90.0571 99.2636L84.6704 102.095L85.6993 96.0983C85.8149 95.424 85.5916 94.7363 85.1015 94.2587L80.744 90.0118L86.7659 89.1369C87.4432 89.0385 88.0283 88.6134 88.3306 88.0002L91.0241 82.5435L93.7171 87.9996C94.0198 88.6134 94.6049 89.0385 95.2821 89.1367L101.304 90.0118L96.9467 94.2589Z" fill="black"/>
</g>
<defs>
<clipPath id="clip0">
<rect width="105" height="105" fill="white"/>
</clipPath>
<clipPath id="clip1">
<rect width="105" height="105" fill="white" transform="translate(4 1)"/>
</clipPath>
</defs>
</svg>
