<svg width="108" height="108" viewBox="0 0 108 108" fill="none" xmlns="http://www.w3.org/2000/svg">
<path d="M83.0599 34.0479L72.6256 23.6135C72.4106 23.3968 72.1394 23.2443 71.8425 23.1733C71.5456 23.1022 71.2347 23.1154 70.9449 23.2114C70.6551 23.3074 70.3978 23.4823 70.202 23.7166C70.0062 23.9508 69.8796 24.235 69.8365 24.5372C69.664 25.7436 69.1589 26.8781 68.378 27.8136C67.597 28.7492 66.571 29.4488 65.4149 29.834C64.2587 30.2193 63.0182 30.2751 61.8321 29.995C60.6461 29.715 59.5614 29.1103 58.6997 28.2485C57.838 27.3868 57.2332 26.3022 56.9532 25.1161C56.6732 23.9301 56.7289 22.6895 57.1142 21.5334C57.4995 20.3772 58.1991 19.3512 59.1346 18.5703C60.0702 17.7893 61.2047 17.2843 62.411 17.1118C62.7133 17.0686 62.9975 16.9421 63.2317 16.7463C63.4659 16.5504 63.6409 16.2932 63.7368 16.0033C63.8328 15.7135 63.846 15.4027 63.775 15.1058C63.704 14.8089 63.5515 14.5377 63.3347 14.3227L52.9003 3.88831C52.5927 3.58074 52.1754 3.40796 51.7404 3.40796C51.3054 3.40796 50.8882 3.58074 50.5805 3.88831L41.5193 12.9462C41.0732 11.2764 40.1952 9.75341 38.9737 8.53053C37.7522 7.30765 36.2303 6.42794 34.561 5.97988C32.8916 5.53182 31.1337 5.5312 29.4641 5.97808C27.7944 6.42496 26.2719 7.30358 25.0495 8.5256C23.8272 9.74761 22.9481 11.2699 22.5008 12.9395C22.0535 14.609 22.0536 16.3669 22.5012 18.0363C22.9488 19.7058 23.8281 21.228 25.0507 22.4498C26.2732 23.6716 27.7959 24.55 29.4656 24.9966L20.4143 34.0479C20.1067 34.3556 19.934 34.7728 19.934 35.2078C19.934 35.6429 20.1067 36.0601 20.4143 36.3678L29.4689 45.4339C27.4812 45.9678 25.7109 47.1114 24.4069 48.7037C23.1029 50.296 22.3308 52.257 22.1991 54.311C22.0675 56.3649 22.583 58.4084 23.673 60.1542C24.7631 61.8999 26.3729 63.2601 28.2762 64.0435L24.4453 75.0931C23.9364 76.2396 23.6972 77.4876 23.7462 78.741C23.7951 79.9944 24.1308 81.2199 24.7275 82.3233L30.4861 95.9405C30.5074 95.9929 30.5321 96.0439 30.5599 96.0931C30.9633 96.8322 31.1737 97.6611 31.1719 98.5032V100.078C31.1719 100.513 31.3447 100.931 31.6524 101.238C31.9601 101.546 32.3774 101.719 32.8125 101.719C33.2476 101.719 33.6649 101.546 33.9726 101.238C34.2803 100.931 34.4531 100.513 34.4531 100.078V98.5032C34.4514 97.1383 34.1133 95.795 33.4688 94.5919L27.7085 80.9747C27.6857 80.9185 27.6594 80.8637 27.6298 80.8107C27.2538 80.1244 27.0447 79.3591 27.0197 78.577C26.9946 77.7948 27.1541 77.0178 27.4854 76.3088L31.4984 64.7588C31.6706 64.7588 31.8396 64.7834 32.0135 64.7834C34.1789 64.7853 36.2842 64.0719 38.0023 62.754C39.7204 61.4361 40.9551 59.5876 41.5144 57.4957L44.2969 60.2668V77.1094C44.2969 77.5445 44.4697 77.9618 44.7774 78.2695C45.0851 78.5772 45.5024 78.75 45.9375 78.75C46.3726 78.75 46.7899 78.5772 47.0976 78.2695C47.4053 77.9618 47.5781 77.5445 47.5781 77.1094V54.1407C47.5781 52.8353 48.0967 51.5834 49.0197 50.6604C49.9428 49.7373 51.1947 49.2188 52.5 49.2188C53.8054 49.2188 55.0573 49.7373 55.9803 50.6604C56.9033 51.5834 57.4219 52.8353 57.4219 54.1407V74.0103C57.4248 76.3022 57.9582 78.5624 58.9805 80.6138L59.581 81.818C60.3748 83.4134 60.788 85.1712 60.788 86.9532C60.788 88.7352 60.3748 90.4929 59.581 92.0883L57.9403 95.3696C57.5997 96.0536 57.4223 96.8072 57.4219 97.5713V100.078C57.4219 100.513 57.5947 100.931 57.9024 101.238C58.2101 101.546 58.6274 101.719 59.0625 101.719C59.4976 101.719 59.9149 101.546 60.2226 101.238C60.5303 100.931 60.7031 100.513 60.7031 100.078V97.5713C60.7015 97.3175 60.7576 97.0668 60.8672 96.8379L62.5078 93.5567C63.5283 91.5052 64.0594 89.2452 64.0594 86.954C64.0594 84.6628 63.5283 82.4027 62.5078 80.3513L61.9074 79.1471C61.3192 77.9657 60.9379 76.6921 60.7803 75.3818C61.8458 76.4512 63.1123 77.2994 64.5069 77.8774C65.9015 78.4555 67.3966 78.752 68.9063 78.75C70.2116 78.75 71.4635 78.2315 72.3866 77.3084C73.3096 76.3854 73.8281 75.1335 73.8281 73.8282V64.4766C75.9457 63.9526 77.8289 62.7395 79.1814 61.0281C80.534 59.3167 81.2791 57.2042 81.2996 55.0229C81.3201 52.8416 80.6147 50.7155 79.2945 48.979C77.9744 47.2425 76.1143 45.9942 74.007 45.4306L83.0599 36.3645C83.3665 36.057 83.5387 35.6404 83.5387 35.2062C83.5387 34.772 83.3665 34.3554 83.0599 34.0479ZM68.9063 75.4688C66.7315 75.4662 64.6465 74.6011 63.1087 73.0633C61.5708 71.5254 60.7058 69.4405 60.7031 67.2657V58.7344L61.9566 57.481C62.4736 59.4238 63.5747 61.1611 65.1111 62.458C66.6474 63.7549 68.5448 64.5488 70.5469 64.7325V73.8282C70.5469 74.2633 70.3741 74.6806 70.0664 74.9883C69.7587 75.2959 69.3414 75.4688 68.9063 75.4688ZM69.1409 45.6635C68.8947 45.9069 68.7318 46.222 68.6755 46.5636C68.6192 46.9052 68.6724 47.2559 68.8276 47.5654C68.9827 47.8749 69.2317 48.1274 69.5391 48.2868C69.8465 48.4461 70.1963 48.5042 70.5387 48.4526C71.9017 48.2597 73.2909 48.5003 74.5097 49.1404C75.7285 49.7805 76.7151 50.7876 77.3299 52.0193C77.9448 53.251 78.1567 54.6449 77.9357 56.0037C77.7148 57.3624 77.0721 58.6173 76.0987 59.5907C75.1253 60.5642 73.8704 61.2068 72.5116 61.4278C71.1528 61.6487 69.759 61.4368 68.5273 60.8219C67.2956 60.2071 66.2885 59.2205 65.6484 58.0017C65.0083 56.783 64.7677 55.3938 64.9606 54.0307C65.0121 53.6884 64.9541 53.3385 64.7947 53.0311C64.6354 52.7238 64.3829 52.4747 64.0733 52.3196C63.7638 52.1645 63.4132 52.1113 63.0716 52.1675C62.73 52.2238 62.4149 52.3867 62.1715 52.6329L60.7031 54.1046C60.7008 53.0273 60.4863 51.9611 60.0718 50.9667C59.6574 49.9724 59.0512 49.0694 58.2877 48.3094C57.5243 47.5493 56.6187 46.9471 55.6226 46.537C54.6264 46.1269 53.5592 45.9171 52.482 45.9195C51.4047 45.9219 50.3385 46.1364 49.3441 46.5508C48.3498 46.9653 47.4468 47.5715 46.6868 48.3349C45.1518 49.8767 44.2921 51.9651 44.2969 54.1407V55.6271L41.2896 52.6198C41.0462 52.3736 40.7312 52.2107 40.3896 52.1544C40.048 52.0981 39.6973 52.1514 39.3878 52.3065C39.0783 52.4616 38.8258 52.7107 38.6664 53.018C38.507 53.3254 38.449 53.6753 38.5006 54.0176C38.6935 55.3806 38.4529 56.7698 37.8128 57.9886C37.1727 59.2074 36.1655 60.194 34.9338 60.8088C33.7021 61.4237 32.3083 61.6356 30.9495 61.4147C29.5907 61.1937 28.3358 60.551 27.3624 59.5776C26.389 58.6042 25.7464 57.3493 25.5254 55.9905C25.3044 54.6318 25.5164 53.2379 26.1312 52.0062C26.7461 50.7745 27.7327 49.7674 28.9514 49.1273C30.1702 48.4872 31.5594 48.2466 32.9224 48.4395C33.2649 48.4915 33.6151 48.4338 33.9228 48.2746C34.2304 48.1154 34.4798 47.8629 34.6352 47.5532C34.7905 47.2436 34.8439 46.8928 34.7876 46.5509C34.7313 46.2091 34.5683 45.8939 34.3219 45.6504L23.8924 35.2078L34.3334 24.7735C34.5796 24.5301 34.7425 24.215 34.7988 23.8734C34.855 23.5318 34.8018 23.1812 34.6467 22.8716C34.4916 22.5621 34.2425 22.3096 33.9352 22.1502C33.6278 21.9909 33.2779 21.9328 32.9356 21.9844C31.5743 22.1747 30.1877 21.9327 28.9713 21.2927C27.755 20.6526 26.7703 19.6468 26.1562 18.4171C25.542 17.1875 25.3295 15.796 25.5486 14.4391C25.7677 13.0822 26.4073 11.8283 27.3771 10.8544C28.6279 9.66282 30.2893 8.99816 32.0168 8.99816C33.7444 8.99816 35.4057 9.66282 36.6565 10.8544C37.3745 11.5742 37.9153 12.451 38.2365 13.4157C38.5577 14.3803 38.6503 15.4063 38.5071 16.4128C38.4556 16.7552 38.5136 17.1051 38.673 17.4124C38.8323 17.7198 39.0848 17.9689 39.3944 18.124C39.7039 18.2791 40.0545 18.3323 40.3961 18.276C40.7377 18.2198 41.0528 18.0569 41.2962 17.8107L51.7453 7.373L59.097 14.7263C57.6759 15.405 56.4384 16.4147 55.4884 17.6707C54.5384 18.9267 53.9036 20.3922 53.6373 21.9444C53.371 23.4965 53.481 25.0899 53.958 26.5907C54.435 28.0915 55.2651 29.456 56.3787 30.5696C57.4923 31.6831 58.8567 32.5133 60.3576 32.9903C61.8584 33.4673 63.4518 33.5773 65.0039 33.311C66.556 33.0447 68.0216 32.4098 69.2776 31.4598C70.5336 30.5098 71.5433 29.2723 72.222 27.8513L79.5753 35.2029L69.1409 45.6635Z" fill="#58EFEC"/>
<path d="M100.078 37.7344H90.2344C89.7993 37.7344 89.382 37.5615 89.0743 37.2538C88.7666 36.9462 88.5938 36.5289 88.5938 36.0938C88.5938 35.6586 88.7666 35.2413 89.0743 34.9337C89.382 34.626 89.7993 34.4531 90.2344 34.4531H100.078C100.513 34.4531 100.931 34.626 101.238 34.9337C101.546 35.2413 101.719 35.6586 101.719 36.0938C101.719 36.5289 101.546 36.9462 101.238 37.2538C100.931 37.5615 100.513 37.7344 100.078 37.7344Z" fill="#58EFEC"/>
<path d="M88.4609 18.8672C88.0997 18.8672 87.7487 18.748 87.4622 18.5282C87.1756 18.3083 86.9697 18.0001 86.8762 17.6512C86.7827 17.3024 86.807 16.9325 86.9452 16.5988C87.0834 16.2652 87.3278 15.9864 87.6406 15.8058L96.1718 10.884C96.5484 10.6698 96.9944 10.6134 97.4125 10.7269C97.8307 10.8404 98.1869 11.1147 98.4035 11.4899C98.6201 11.865 98.6796 12.3107 98.5688 12.7295C98.4581 13.1484 98.1862 13.5064 97.8124 13.7255L89.2812 18.6474C89.032 18.792 88.7489 18.8679 88.4609 18.8672Z" fill="#58EFEC"/>
<path d="M96.9839 61.5234C96.6958 61.524 96.4128 61.4481 96.1636 61.3035L87.6324 56.3817C87.4443 56.2747 87.2792 56.1316 87.1466 55.9606C87.014 55.7896 86.9166 55.5941 86.8599 55.3853C86.8032 55.1765 86.7884 54.9585 86.8163 54.744C86.8442 54.5294 86.9142 54.3225 87.0224 54.1351C87.1306 53.9477 87.2748 53.7836 87.4467 53.6522C87.6185 53.5208 87.8147 53.4246 88.0239 53.3693C88.2331 53.314 88.4511 53.3006 88.6655 53.3299C88.8799 53.3593 89.0863 53.4307 89.273 53.5401L97.8042 58.462C98.117 58.6426 98.3614 58.9213 98.4996 59.255C98.6378 59.5886 98.662 59.9586 98.5686 60.3074C98.4751 60.6562 98.2691 60.9645 97.9826 61.1843C97.6961 61.4042 97.3451 61.5234 96.9839 61.5234Z" fill="#58EFEC"/>
<path d="M14.7656 37.7344H4.92188C4.48675 37.7344 4.06945 37.5615 3.76178 37.2538C3.4541 36.9462 3.28125 36.5289 3.28125 36.0938C3.28125 35.6586 3.4541 35.2413 3.76178 34.9337C4.06945 34.626 4.48675 34.4531 4.92188 34.4531H14.7656C15.2007 34.4531 15.618 34.626 15.9257 34.9337C16.2334 35.2413 16.4062 35.6586 16.4062 36.0938C16.4062 36.5289 16.2334 36.9462 15.9257 37.2538C15.618 37.5615 15.2007 37.7344 14.7656 37.7344Z" fill="#58EFEC"/>
<path d="M16.5392 18.8672C16.2511 18.8679 15.968 18.792 15.7189 18.6474L7.1876 13.7255C6.81386 13.5064 6.54195 13.1484 6.43121 12.7295C6.32048 12.3107 6.3799 11.865 6.59653 11.4899C6.81315 11.1147 7.16938 10.8404 7.58748 10.7269C8.00558 10.6134 8.45161 10.6698 8.82823 10.884L17.3595 15.8058C17.6722 15.9864 17.9167 16.2652 18.0548 16.5988C18.193 16.9325 18.2173 17.3024 18.1238 17.6512C18.0303 18.0001 17.8244 18.3083 17.5379 18.5282C17.2514 18.748 16.9003 18.8672 16.5392 18.8672Z" fill="#58EFEC"/>
<path d="M8.01604 61.5234C7.6549 61.5234 7.30385 61.4042 7.01734 61.1843C6.73083 60.9645 6.52487 60.6562 6.43139 60.3074C6.33792 59.9586 6.36216 59.5886 6.50036 59.255C6.63855 58.9213 6.88298 58.6426 7.19573 58.462L15.727 53.5401C15.9136 53.4307 16.1201 53.3593 16.3345 53.3299C16.5488 53.3006 16.7669 53.314 16.9761 53.3693C17.1852 53.4246 17.3814 53.5208 17.5533 53.6522C17.7252 53.7836 17.8693 53.9477 17.9775 54.1351C18.0857 54.3225 18.1558 54.5294 18.1837 54.744C18.2115 54.9585 18.1967 55.1765 18.14 55.3853C18.0833 55.5941 17.9859 55.7896 17.8533 55.9606C17.7208 56.1316 17.5557 56.2747 17.3676 56.3817L8.83635 61.3035C8.58719 61.4481 8.30412 61.524 8.01604 61.5234Z" fill="#58EFEC"/>
<path d="M86.0599 37.0479L75.6256 26.6135C75.4106 26.3968 75.1394 26.2443 74.8425 26.1733C74.5456 26.1022 74.2347 26.1154 73.9449 26.2114C73.6551 26.3074 73.3978 26.4823 73.202 26.7166C73.0062 26.9508 72.8796 27.235 72.8365 27.5372C72.664 28.7436 72.1589 29.8781 71.378 30.8136C70.597 31.7492 69.571 32.4488 68.4149 32.834C67.2587 33.2193 66.0182 33.2751 64.8321 32.995C63.6461 32.715 62.5614 32.1103 61.6997 31.2485C60.838 30.3868 60.2332 29.3022 59.9532 28.1161C59.6732 26.9301 59.7289 25.6895 60.1142 24.5334C60.4995 23.3772 61.1991 22.3512 62.1346 21.5703C63.0702 20.7893 64.2047 20.2843 65.411 20.1118C65.7133 20.0686 65.9975 19.9421 66.2317 19.7463C66.4659 19.5504 66.6409 19.2932 66.7368 19.0033C66.8328 18.7135 66.846 18.4027 66.775 18.1058C66.704 17.8089 66.5515 17.5377 66.3347 17.3227L55.9003 6.88831C55.5927 6.58074 55.1754 6.40796 54.7404 6.40796C54.3054 6.40796 53.8882 6.58074 53.5805 6.88831L44.5193 15.9462C44.0732 14.2764 43.1952 12.7534 41.9737 11.5305C40.7522 10.3076 39.2303 9.42794 37.561 8.97988C35.8916 8.53182 34.1337 8.5312 32.4641 8.97808C30.7944 9.42496 29.2719 10.3036 28.0495 11.5256C26.8272 12.7476 25.9481 14.2699 25.5008 15.9395C25.0535 17.609 25.0536 19.3669 25.5012 21.0363C25.9488 22.7058 26.8281 24.228 28.0507 25.4498C29.2732 26.6716 30.7959 27.55 32.4656 27.9966L23.4143 37.0479C23.1067 37.3556 22.934 37.7728 22.934 38.2078C22.934 38.6429 23.1067 39.0601 23.4143 39.3678L32.4689 48.4339C30.4812 48.9678 28.7109 50.1114 27.4069 51.7037C26.1029 53.296 25.3308 55.257 25.1991 57.311C25.0675 59.3649 25.583 61.4084 26.673 63.1542C27.7631 64.8999 29.3729 66.2601 31.2762 67.0435L27.4453 78.0931C26.9364 79.2396 26.6972 80.4876 26.7462 81.741C26.7951 82.9944 27.1308 84.2199 27.7275 85.3233L33.4861 98.9405C33.5074 98.9929 33.5321 99.0439 33.5599 99.0931C33.9633 99.8322 34.1737 100.661 34.1719 101.503V103.078C34.1719 103.513 34.3447 103.931 34.6524 104.238C34.9601 104.546 35.3774 104.719 35.8125 104.719C36.2476 104.719 36.6649 104.546 36.9726 104.238C37.2803 103.931 37.4531 103.513 37.4531 103.078V101.503C37.4514 100.138 37.1133 98.795 36.4688 97.5919L30.7085 83.9747C30.6857 83.9185 30.6594 83.8637 30.6298 83.8107C30.2538 83.1244 30.0447 82.3591 30.0197 81.577C29.9946 80.7948 30.1541 80.0178 30.4854 79.3088L34.4984 67.7588C34.6706 67.7588 34.8396 67.7834 35.0135 67.7834C37.1789 67.7853 39.2842 67.0719 41.0023 65.754C42.7204 64.4361 43.9551 62.5876 44.5144 60.4957L47.2969 63.2668V80.1094C47.2969 80.5445 47.4697 80.9618 47.7774 81.2695C48.0851 81.5772 48.5024 81.75 48.9375 81.75C49.3726 81.75 49.7899 81.5772 50.0976 81.2695C50.4053 80.9618 50.5781 80.5445 50.5781 80.1094V57.1407C50.5781 55.8353 51.0967 54.5834 52.0197 53.6604C52.9428 52.7373 54.1947 52.2188 55.5 52.2188C56.8054 52.2188 58.0573 52.7373 58.9803 53.6604C59.9033 54.5834 60.4219 55.8353 60.4219 57.1407V77.0103C60.4248 79.3022 60.9582 81.5624 61.9805 83.6138L62.581 84.818C63.3748 86.4134 63.788 88.1712 63.788 89.9532C63.788 91.7352 63.3748 93.4929 62.581 95.0883L60.9403 98.3696C60.5997 99.0536 60.4223 99.8072 60.4219 100.571V103.078C60.4219 103.513 60.5947 103.931 60.9024 104.238C61.2101 104.546 61.6274 104.719 62.0625 104.719C62.4976 104.719 62.9149 104.546 63.2226 104.238C63.5303 103.931 63.7031 103.513 63.7031 103.078V100.571C63.7015 100.318 63.7576 100.067 63.8672 99.8379L65.5078 96.5567C66.5283 94.5052 67.0594 92.2452 67.0594 89.954C67.0594 87.6628 66.5283 85.4027 65.5078 83.3513L64.9074 82.1471C64.3192 80.9657 63.9379 79.6921 63.7803 78.3818C64.8458 79.4512 66.1123 80.2994 67.5069 80.8774C68.9015 81.4555 70.3966 81.752 71.9063 81.75C73.2116 81.75 74.4635 81.2315 75.3866 80.3084C76.3096 79.3854 76.8281 78.1335 76.8281 76.8282V67.4766C78.9457 66.9526 80.8289 65.7395 82.1814 64.0281C83.534 62.3167 84.2791 60.2042 84.2996 58.0229C84.3201 55.8416 83.6147 53.7155 82.2945 51.979C80.9744 50.2425 79.1143 48.9942 77.007 48.4306L86.0599 39.3645C86.3665 39.057 86.5387 38.6404 86.5387 38.2062C86.5387 37.772 86.3665 37.3554 86.0599 37.0479ZM71.9063 78.4688C69.7315 78.4662 67.6465 77.6011 66.1087 76.0633C64.5708 74.5254 63.7058 72.4405 63.7031 70.2657V61.7344L64.9566 60.481C65.4736 62.4238 66.5747 64.1611 68.1111 65.458C69.6474 66.7549 71.5448 67.5488 73.5469 67.7325V76.8282C73.5469 77.2633 73.3741 77.6806 73.0664 77.9883C72.7587 78.2959 72.3414 78.4688 71.9063 78.4688ZM72.1409 48.6635C71.8947 48.9069 71.7318 49.222 71.6755 49.5636C71.6192 49.9052 71.6724 50.2559 71.8276 50.5654C71.9827 50.8749 72.2317 51.1274 72.5391 51.2868C72.8465 51.4461 73.1963 51.5042 73.5387 51.4526C74.9017 51.2597 76.2909 51.5003 77.5097 52.1404C78.7285 52.7805 79.7151 53.7876 80.3299 55.0193C80.9448 56.251 81.1567 57.6449 80.9357 59.0037C80.7148 60.3624 80.0721 61.6173 79.0987 62.5907C78.1253 63.5642 76.8704 64.2068 75.5116 64.4278C74.1528 64.6487 72.759 64.4368 71.5273 63.8219C70.2956 63.2071 69.2885 62.2205 68.6484 61.0017C68.0083 59.783 67.7677 58.3938 67.9606 57.0307C68.0121 56.6884 67.9541 56.3385 67.7947 56.0311C67.6354 55.7238 67.3829 55.4747 67.0733 55.3196C66.7638 55.1645 66.4132 55.1113 66.0716 55.1675C65.73 55.2238 65.4149 55.3867 65.1715 55.6329L63.7031 57.1046C63.7008 56.0273 63.4863 54.9611 63.0718 53.9667C62.6574 52.9724 62.0512 52.0694 61.2877 51.3094C60.5243 50.5493 59.6187 49.9471 58.6226 49.537C57.6264 49.1269 56.5592 48.9171 55.482 48.9195C54.4047 48.9219 53.3385 49.1364 52.3441 49.5508C51.3498 49.9653 50.4468 50.5715 49.6868 51.3349C48.1518 52.8767 47.2921 54.9651 47.2969 57.1407V58.6271L44.2896 55.6198C44.0462 55.3736 43.7312 55.2107 43.3896 55.1544C43.048 55.0981 42.6973 55.1514 42.3878 55.3065C42.0783 55.4616 41.8258 55.7107 41.6664 56.018C41.507 56.3254 41.449 56.6753 41.5006 57.0176C41.6935 58.3806 41.4529 59.7698 40.8128 60.9886C40.1727 62.2074 39.1655 63.194 37.9338 63.8088C36.7021 64.4237 35.3083 64.6356 33.9495 64.4147C32.5907 64.1937 31.3358 63.551 30.3624 62.5776C29.389 61.6042 28.7464 60.3493 28.5254 58.9905C28.3044 57.6318 28.5164 56.2379 29.1312 55.0062C29.7461 53.7745 30.7327 52.7674 31.9514 52.1273C33.1702 51.4872 34.5594 51.2466 35.9224 51.4395C36.2649 51.4915 36.6151 51.4338 36.9228 51.2746C37.2304 51.1154 37.4798 50.8629 37.6352 50.5532C37.7905 50.2436 37.8439 49.8928 37.7876 49.5509C37.7313 49.2091 37.5683 48.8939 37.3219 48.6504L26.8924 38.2078L37.3334 27.7735C37.5796 27.5301 37.7425 27.215 37.7988 26.8734C37.855 26.5318 37.8018 26.1812 37.6467 25.8716C37.4916 25.5621 37.2425 25.3096 36.9352 25.1502C36.6278 24.9909 36.2779 24.9328 35.9356 24.9844C34.5743 25.1747 33.1877 24.9327 31.9713 24.2927C30.755 23.6526 29.7703 22.6468 29.1562 21.4171C28.542 20.1875 28.3295 18.796 28.5486 17.4391C28.7677 16.0822 29.4073 14.8283 30.3771 13.8544C31.6279 12.6628 33.2893 11.9982 35.0168 11.9982C36.7444 11.9982 38.4057 12.6628 39.6565 13.8544C40.3745 14.5742 40.9153 15.451 41.2365 16.4157C41.5577 17.3803 41.6503 18.4063 41.5071 19.4128C41.4556 19.7552 41.5136 20.1051 41.673 20.4124C41.8323 20.7198 42.0848 20.9689 42.3944 21.124C42.7039 21.2791 43.0545 21.3323 43.3961 21.276C43.7377 21.2198 44.0528 21.0569 44.2962 20.8107L54.7453 10.373L62.097 17.7263C60.6759 18.405 59.4384 19.4147 58.4884 20.6707C57.5384 21.9267 56.9036 23.3922 56.6373 24.9444C56.371 26.4965 56.481 28.0899 56.958 29.5907C57.435 31.0915 58.2651 32.456 59.3787 33.5696C60.4923 34.6831 61.8567 35.5133 63.3576 35.9903C64.8584 36.4673 66.4518 36.5773 68.0039 36.311C69.556 36.0447 71.0216 35.4098 72.2776 34.4598C73.5336 33.5098 74.5433 32.2723 75.222 30.8513L82.5753 38.2029L72.1409 48.6635Z" fill="black"/>
<path d="M103.078 40.7344H93.2344C92.7993 40.7344 92.382 40.5615 92.0743 40.2538C91.7666 39.9462 91.5938 39.5289 91.5938 39.0938C91.5938 38.6586 91.7666 38.2413 92.0743 37.9337C92.382 37.626 92.7993 37.4531 93.2344 37.4531H103.078C103.513 37.4531 103.931 37.626 104.238 37.9337C104.546 38.2413 104.719 38.6586 104.719 39.0938C104.719 39.5289 104.546 39.9462 104.238 40.2538C103.931 40.5615 103.513 40.7344 103.078 40.7344Z" fill="black"/>
<path d="M91.4609 21.8672C91.0997 21.8672 90.7487 21.748 90.4622 21.5282C90.1756 21.3083 89.9697 21.0001 89.8762 20.6512C89.7827 20.3024 89.807 19.9325 89.9452 19.5988C90.0834 19.2652 90.3278 18.9864 90.6406 18.8058L99.1718 13.884C99.5484 13.6698 99.9944 13.6134 100.413 13.7269C100.831 13.8404 101.187 14.1147 101.404 14.4899C101.62 14.865 101.68 15.3107 101.569 15.7295C101.458 16.1484 101.186 16.5064 100.812 16.7255L92.2812 21.6474C92.032 21.792 91.7489 21.8679 91.4609 21.8672Z" fill="black"/>
<path d="M99.9839 64.5234C99.6958 64.524 99.4128 64.4481 99.1636 64.3035L90.6324 59.3817C90.4443 59.2747 90.2792 59.1316 90.1466 58.9606C90.014 58.7896 89.9166 58.5941 89.8599 58.3853C89.8032 58.1765 89.7884 57.9585 89.8163 57.744C89.8442 57.5294 89.9142 57.3225 90.0224 57.1351C90.1306 56.9477 90.2748 56.7836 90.4467 56.6522C90.6185 56.5208 90.8147 56.4246 91.0239 56.3693C91.2331 56.314 91.4511 56.3006 91.6655 56.3299C91.8799 56.3593 92.0863 56.4307 92.273 56.5401L100.804 61.462C101.117 61.6426 101.361 61.9213 101.5 62.255C101.638 62.5886 101.662 62.9586 101.569 63.3074C101.475 63.6562 101.269 63.9645 100.983 64.1843C100.696 64.4042 100.345 64.5234 99.9839 64.5234Z" fill="black"/>
<path d="M17.7656 40.7344H7.92188C7.48675 40.7344 7.06945 40.5615 6.76178 40.2538C6.4541 39.9462 6.28125 39.5289 6.28125 39.0938C6.28125 38.6586 6.4541 38.2413 6.76178 37.9337C7.06945 37.626 7.48675 37.4531 7.92188 37.4531H17.7656C18.2007 37.4531 18.618 37.626 18.9257 37.9337C19.2334 38.2413 19.4062 38.6586 19.4062 39.0938C19.4062 39.5289 19.2334 39.9462 18.9257 40.2538C18.618 40.5615 18.2007 40.7344 17.7656 40.7344Z" fill="black"/>
<path d="M19.5392 21.8672C19.2511 21.8679 18.968 21.792 18.7189 21.6474L10.1876 16.7255C9.81386 16.5064 9.54195 16.1484 9.43121 15.7295C9.32048 15.3107 9.3799 14.865 9.59653 14.4899C9.81315 14.1147 10.1694 13.8404 10.5875 13.7269C11.0056 13.6134 11.4516 13.6698 11.8282 13.884L20.3595 18.8058C20.6722 18.9864 20.9167 19.2652 21.0548 19.5988C21.193 19.9325 21.2173 20.3024 21.1238 20.6512C21.0303 21.0001 20.8244 21.3083 20.5379 21.5282C20.2514 21.748 19.9003 21.8672 19.5392 21.8672Z" fill="black"/>
<path d="M11.016 64.5234C10.6549 64.5234 10.3038 64.4042 10.0173 64.1843C9.73083 63.9645 9.52487 63.6562 9.43139 63.3074C9.33792 62.9586 9.36216 62.5886 9.50036 62.255C9.63855 61.9213 9.88298 61.6426 10.1957 61.462L18.727 56.5401C18.9136 56.4307 19.1201 56.3593 19.3345 56.3299C19.5488 56.3006 19.7669 56.314 19.9761 56.3693C20.1852 56.4246 20.3814 56.5208 20.5533 56.6522C20.7252 56.7836 20.8693 56.9477 20.9775 57.1351C21.0857 57.3225 21.1558 57.5294 21.1837 57.744C21.2115 57.9585 21.1967 58.1765 21.14 58.3853C21.0833 58.5941 20.9859 58.7896 20.8533 58.9606C20.7208 59.1316 20.5557 59.2747 20.3676 59.3817L11.8364 64.3035C11.5872 64.4481 11.3041 64.524 11.016 64.5234Z" fill="black"/>
</svg>
