<svg width="50" height="51" viewBox="0 0 50 51" fill="none" xmlns="http://www.w3.org/2000/svg">
<g clip-path="url(#clip0)">
<path d="M25 0.0947266C11.195 0.0947266 0 11.2897 0 25.0947C0 38.8997 11.195 50.0947 25 50.0947C38.805 50.0947 50 38.8997 50 25.0947C50 11.2897 38.805 0.0947266 25 0.0947266ZM36.4147 19.5871C36.4258 19.8331 36.4311 20.0803 36.4311 20.3286C36.4311 27.9111 30.6595 36.6548 20.1046 36.6552H20.105H20.1046C16.864 36.6552 13.8485 35.7053 11.3091 34.0776C11.758 34.1306 12.215 34.1569 12.6778 34.1569C15.3664 34.1569 17.8406 33.2399 19.8048 31.7006C17.2928 31.6541 15.1749 29.9951 14.444 27.715C14.7938 27.7822 15.1535 27.8188 15.5224 27.8188C16.0461 27.8188 16.5535 27.7482 17.0357 27.6166C14.41 27.091 12.4321 24.7705 12.4321 21.9919C12.4321 21.9659 12.4321 21.9426 12.4329 21.9186C13.2061 22.3485 14.0903 22.6072 15.0318 22.6362C13.4911 21.6081 12.4783 19.8507 12.4783 17.8598C12.4783 16.8084 12.7625 15.8235 13.2553 14.9755C16.0851 18.4476 20.314 20.7311 25.0832 20.971C24.9847 20.5507 24.934 20.1127 24.934 19.6626C24.934 16.4949 27.504 13.9249 30.6728 13.9249C32.3235 13.9249 33.8142 14.6226 34.8614 15.738C36.1687 15.4802 37.3962 15.0026 38.5052 14.3453C38.076 15.6846 37.1666 16.8084 35.9818 17.5191C37.1426 17.3803 38.2488 17.0724 39.2769 16.6154C38.509 17.7663 37.5351 18.7772 36.4147 19.5871Z" fill="white"/>
</g>
<defs>
<clipPath id="clip0">
<rect width="50" height="50" fill="white" transform="translate(0 0.0947266)"/>
</clipPath>
</defs>
</svg>
